<?xml version="1.0" standalone="no"?>
<!DOCTYPE svg PUBLIC "-//W3C//DTD SVG 20010904//EN"
 "http://www.w3.org/TR/2001/REC-SVG-20010904/DTD/svg10.dtd">
<svg version="1.0" xmlns="http://www.w3.org/2000/svg"
 width="300.000000pt" height="346.000000pt" viewBox="0 0 300.000000 346.000000"
 preserveAspectRatio="xMidYMid meet">
<metadata>
Created by potrace 1.10, written by Peter Selinger 2001-2011
</metadata>
<g transform="translate(0.000000,346.000000) scale(0.100000,-0.100000)"
fill="#000000" stroke="none">
<path d="M0 1730 l0 -1730 1500 0 1500 0 0 1730 0 1730 -1500 0 -1500 0 0
-1730z m1584 1598 c3 -13 6 -52 6 -88 0 -36 4 -70 8 -76 4 -7 33 -15 64 -19
56 -7 58 -7 69 21 45 107 59 134 74 134 27 0 173 -50 184 -64 7 -9 5 -36 -10
-96 -10 -45 -18 -84 -17 -85 32 -20 99 -55 107 -55 6 0 39 27 73 60 33 33 69
60 78 60 18 0 125 -74 148 -102 11 -14 8 -26 -17 -76 -17 -34 -35 -63 -41 -67
-20 -12 -10 -46 24 -83 l35 -37 48 24 c26 14 55 30 63 37 8 7 27 15 41 19 24
6 31 1 59 -42 18 -26 39 -53 46 -59 8 -6 17 -25 20 -41 5 -27 0 -35 -56 -86
-60 -54 -62 -58 -51 -84 6 -16 21 -40 34 -55 21 -26 23 -27 62 -13 22 8 63 15
91 15 l50 0 32 -94 c18 -52 32 -99 32 -105 0 -11 -36 -29 -74 -37 -10 -2 -38
-13 -63 -25 -41 -20 -44 -23 -37 -53 16 -75 41 -96 97 -82 27 6 99 -11 110
-28 10 -14 6 -176 -4 -198 -7 -12 -30 -18 -96 -23 -49 -4 -91 -13 -95 -19 -4
-6 -8 -32 -8 -57 l0 -46 68 -28 c102 -43 100 -39 67 -145 -19 -58 -35 -92 -46
-95 -9 -3 -51 1 -93 10 -42 9 -81 13 -86 10 -6 -4 -21 -28 -34 -54 l-24 -47
64 -69 c35 -38 64 -76 64 -83 0 -12 -105 -162 -113 -162 -8 0 -125 64 -138 76
-24 21 -36 17 -78 -26 l-39 -41 30 -57 c17 -31 34 -59 39 -62 4 -3 10 -17 14
-32 6 -24 1 -30 -62 -71 -105 -69 -105 -69 -172 3 l-58 62 -51 -27 c-57 -30
-59 -35 -37 -88 8 -20 15 -54 15 -76 0 -38 -2 -40 -52 -64 -69 -31 -148 -51
-160 -39 -5 5 -19 34 -31 64 -32 78 -50 103 -67 93 -8 -5 -28 -9 -44 -9 -35
-1 -42 -16 -51 -107 -9 -82 -19 -92 -103 -97 -39 -2 -86 1 -105 7 -33 11 -34
14 -41 73 -3 33 -6 76 -6 94 0 29 -3 34 -24 34 -13 0 -37 3 -55 6 -27 6 -32 3
-41 -22 -6 -16 -16 -40 -24 -54 -7 -14 -16 -37 -20 -52 -11 -46 -35 -44 -199
21 -25 10 -27 14 -22 48 3 21 8 54 11 73 3 19 7 42 10 51 3 11 -8 21 -36 34
-22 10 -40 22 -40 27 0 24 -45 1 -91 -47 -29 -31 -62 -58 -75 -61 -19 -5 -64
14 -84 36 -3 3 -22 18 -43 33 -21 16 -37 37 -37 48 0 22 31 88 62 131 l19 28
-32 40 c-18 22 -41 40 -51 40 -10 0 -43 -15 -72 -34 -86 -55 -89 -55 -138 11
-23 32 -46 60 -50 63 -3 3 -9 17 -13 31 -6 23 2 33 56 82 l63 56 -29 56 c-27
54 -30 57 -59 50 -17 -4 -59 -9 -94 -12 l-62 -5 -20 44 c-11 23 -20 52 -20 63
0 11 -6 32 -14 47 -13 24 -12 29 5 47 11 11 32 24 47 27 15 4 46 15 70 25 36
16 42 22 42 49 0 16 -4 30 -9 30 -5 0 -7 8 -4 19 6 25 -6 32 -90 42 -115 15
-107 5 -107 130 0 60 1 109 3 109 1 1 42 3 92 6 50 4 94 9 98 14 5 4 11 31 14
61 l5 54 -63 26 c-35 15 -72 30 -83 33 -15 5 -17 14 -14 54 3 26 13 73 23 104
20 62 36 72 88 57 18 -6 53 -14 80 -18 l47 -8 30 55 30 55 -65 65 c-36 36 -65
74 -65 83 0 20 93 137 115 146 8 2 46 -11 86 -31 39 -20 80 -36 89 -36 10 0
32 16 49 35 35 40 36 36 -26 132 -18 28 -33 56 -33 62 0 17 144 121 167 121
11 -1 86 -72 99 -95 17 -30 49 -29 91 1 21 16 40 29 42 31 2 1 -4 31 -13 67
-26 105 -24 111 37 134 149 56 164 52 203 -55 29 -80 36 -84 103 -60 31 11 34
16 37 62 12 139 8 135 139 135 98 0 103 -1 109 -22z m-1146 -73 c-3 -3 -9 2
-12 12 -6 14 -5 15 5 6 7 -7 10 -15 7 -18z m1976 -2454 c23 -11 58 -26 79 -35
l37 -15 0 -99 0 -99 -62 -27 c-71 -31 -78 -38 -78 -84 0 -48 28 -56 192 -53
76 1 159 -1 184 -5 52 -7 114 -54 114 -85 0 -23 0 -23 -66 -2 -41 13 -59 14
-78 5 -25 -11 -50 -66 -61 -135 -8 -51 -31 -58 -61 -20 -48 62 -58 65 -255 63
-234 -1 -259 10 -259 119 0 28 -3 51 -6 51 -20 0 -84 -25 -84 -32 0 -5 -4 -7
-8 -4 -7 4 -73 -9 -177 -35 -96 -24 -180 -32 -330 -32 -165 1 -262 13 -415 53
-25 7 -52 13 -60 14 -26 4 -74 17 -111 31 -20 8 -39 11 -43 8 -3 -4 -6 -31 -6
-62 0 -54 -2 -57 -42 -86 l-42 -29 -147 3 c-187 3 -219 -5 -281 -72 -32 -34
-49 -46 -52 -36 -5 15 -16 77 -22 123 -7 53 -30 76 -77 76 -23 -1 -60 -7 -82
-15 -22 -8 -43 -15 -47 -15 -20 0 -4 35 31 73 l39 41 178 6 c204 7 237 16 242
65 2 24 -3 34 -27 48 -16 9 -38 17 -49 17 -49 0 -52 7 -52 105 0 107 -1 105
112 159 49 24 59 26 80 15 13 -7 25 -14 28 -15 10 -2 107 -46 177 -81 40 -19
73 -33 75 -31 2 1 17 -6 33 -18 47 -33 135 -62 295 -99 8 -2 15 -4 15 -6 0 -1
11 -3 25 -4 14 -1 54 -7 90 -14 89 -15 178 -14 285 4 147 25 310 77 368 117
15 11 27 17 27 15 0 -3 69 30 153 73 83 44 158 79 166 79 8 1 33 -8 55 -18z"/>
<path d="M1386 3295 c-3 -11 -6 -42 -7 -70 -2 -88 -8 -99 -64 -107 -28 -4 -64
-9 -81 -13 -32 -5 -32 -5 -65 80 -18 47 -38 85 -45 85 -6 0 -41 -10 -79 -21
l-67 -22 6 -54 c4 -30 11 -64 17 -75 20 -38 6 -58 -69 -98 l-73 -40 -22 23
c-12 12 -38 41 -58 65 -20 23 -40 42 -44 42 -14 0 -114 -65 -120 -78 -3 -7 18
-48 45 -90 l50 -77 -67 -62 -67 -62 -31 23 c-16 13 -53 35 -81 49 l-50 26 -42
-54 c-23 -29 -42 -58 -42 -64 0 -6 30 -41 66 -77 l65 -66 -33 -64 c-54 -103
-44 -98 -136 -74 -44 11 -85 20 -91 20 -12 0 -55 -136 -46 -149 3 -5 37 -22
76 -37 43 -17 74 -35 78 -47 4 -10 2 -53 -4 -95 l-10 -77 -88 -1 c-48 0 -89
-3 -91 -5 -2 -2 -6 -40 -7 -84 l-4 -80 40 -7 c22 -4 64 -7 92 -7 59 -1 53 7
73 -106 9 -53 8 -62 -7 -72 -9 -7 -23 -13 -30 -13 -7 0 -37 -11 -68 -24 -63
-28 -64 -33 -32 -121 l22 -60 40 3 c22 2 59 10 83 19 52 19 53 18 106 -78 l36
-67 -64 -53 c-36 -30 -65 -60 -65 -66 -1 -7 15 -33 34 -59 19 -25 35 -50 35
-55 0 -17 20 -9 94 36 41 25 79 45 84 45 5 0 21 -15 37 -33 15 -17 41 -46 58
-64 l30 -32 -26 -31 c-15 -17 -37 -53 -51 -80 l-25 -49 38 -30 c20 -16 50 -35
65 -42 27 -13 30 -11 93 54 l65 67 77 -42 c42 -22 78 -42 80 -44 1 -1 -6 -42
-17 -91 -15 -62 -17 -90 -9 -95 14 -9 139 -40 143 -36 2 2 18 40 36 83 38 89
26 83 143 68 l60 -8 5 -90 5 -90 84 0 c95 0 87 -10 98 108 3 37 7 67 9 67 1 0
37 7 79 15 43 8 81 12 85 10 4 -3 11 -17 15 -32 3 -16 17 -52 31 -81 19 -39
29 -52 42 -48 9 2 43 12 76 21 l58 16 -7 45 c-9 64 -12 75 -24 106 -10 26 -8
28 71 74 l81 46 61 -68 62 -67 62 42 62 42 -27 47 c-14 26 -35 59 -45 74 -30
44 -27 51 84 147 l27 24 35 -30 c31 -28 122 -71 130 -62 40 52 76 104 76 111
0 5 -30 38 -66 73 l-67 65 38 72 c21 40 41 77 46 82 5 5 32 2 66 -7 125 -33
117 -36 142 46 17 57 19 73 9 82 -17 15 -116 55 -136 55 -13 0 -14 12 -8 80 3
44 9 86 12 94 5 12 27 16 97 18 l92 3 3 82 3 81 -53 6 c-29 3 -71 7 -93 9 -40
2 -40 2 -52 57 -23 112 -22 113 60 145 105 41 103 37 70 125 -3 8 -7 21 -9 28
-8 41 -13 44 -66 37 -28 -4 -67 -14 -86 -22 -19 -8 -37 -12 -40 -8 -3 3 -25
38 -48 77 l-43 73 69 63 70 64 -41 59 c-23 32 -46 59 -51 59 -13 0 -132 -72
-136 -82 -8 -18 -31 -4 -85 50 -59 60 -68 81 -41 103 9 7 29 38 44 70 l29 56
-22 20 c-48 43 -87 64 -106 58 -11 -3 -45 -33 -75 -66 l-56 -60 -77 42 c-43
23 -80 44 -82 46 -2 1 3 29 13 60 9 32 17 73 19 92 2 33 1 34 -63 52 -36 10
-70 17 -76 15 -6 -2 -26 -38 -44 -80 -28 -64 -37 -75 -54 -71 -12 2 -51 7 -88
10 l-68 7 -1 76 c-1 114 -1 114 -92 116 -68 1 -76 -1 -81 -19z m37 -45 c-3
-12 -8 -19 -11 -16 -5 6 5 36 12 36 2 0 2 -9 -1 -20z m94 -42 c-2 -13 -4 -5
-4 17 -1 22 1 32 4 23 2 -10 2 -28 0 -40z m-402 1 c11 -16 1 -19 -13 -3 -7 8
-8 14 -3 14 5 0 13 -5 16 -11z m292 -21 c-3 -8 -6 -5 -6 6 -1 11 2 17 5 13 3
-3 4 -12 1 -19z m426 2 c-10 -11 -19 -20 -21 -20 -1 0 2 9 8 20 6 11 15 20 20
20 6 0 2 -9 -7 -20z m54 4 c-3 -3 -12 -4 -19 -1 -8 3 -5 6 6 6 11 1 17 -2 13
-5z m20 -36 c-3 -7 -5 -2 -5 12 0 14 2 19 5 13 2 -7 2 -19 0 -25z m-880 0 c-3
-8 -6 -5 -6 6 -1 11 2 17 5 13 3 -3 4 -12 1 -19z m138 -55 l18 -28 -21 19
c-12 11 -22 23 -22 28 0 14 7 9 25 -19z m578 -32 c199 -53 363 -142 502 -273
154 -145 249 -289 311 -470 129 -375 56 -797 -191 -1105 -193 -242 -460 -386
-785 -423 -175 -21 -406 17 -574 94 -232 106 -440 306 -553 531 -38 74 -93
229 -93 259 0 13 -3 25 -6 29 -24 24 -25 405 -1 477 3 8 14 50 26 92 108 392
451 708 866 798 124 27 382 22 498 -9z m507 -51 c13 -11 21 -22 18 -25 -2 -3
-15 6 -28 20 -28 30 -22 33 10 5z m-70 -33 c0 -2 -10 -12 -22 -23 l-23 -19 19
23 c18 21 26 27 26 19z m-1383 -59 c-3 -7 -5 -2 -5 12 0 14 2 19 5 13 2 -7 2
-19 0 -25z m1450 -38 c-7 -17 -13 -26 -15 -21 -3 10 15 51 22 51 3 0 -1 -14
-7 -30z m293 -173 c0 -5 -4 -5 -10 -2 -5 3 -10 14 -10 23 0 15 2 15 10 2 5 -8
10 -19 10 -23z m-1980 -22 c11 -13 10 -14 -4 -9 -12 5 -16 0 -17 -22 -2 -25
-2 -26 -6 -6 -4 22 2 52 10 52 3 0 10 -7 17 -15z m1995 -5 c3 -5 1 -10 -4 -10
-6 0 -11 5 -11 10 0 6 2 10 4 10 3 0 8 -4 11 -10z m-16 -42 c-2 -2 -17 -14
-34 -28 l-30 -25 29 32 c16 18 32 31 34 28 3 -3 3 -6 1 -7z m-59 -2 c0 -2 -11
-11 -24 -20 -19 -12 -27 -13 -32 -3 -4 6 -4 9 1 5 4 -4 17 -1 29 7 21 16 26
18 26 11z m-2107 -286 c-3 -12 -8 -19 -11 -16 -5 6 5 36 12 36 2 0 2 -9 -1
-20z m2337 5 c0 -10 -63 -75 -72 -75 -6 0 7 18 28 39 41 41 44 44 44 36z m28
-36 c-3 -8 -7 -3 -11 10 -4 17 -3 21 5 13 5 -5 8 -16 6 -23z m-14 -33 c-10 -8
-21 -12 -24 -10 -5 6 21 24 34 24 6 0 1 -6 -10 -14z m-84 -40 c0 -3 -4 -8 -10
-11 -5 -3 -10 -1 -10 4 0 6 5 11 10 11 6 0 10 -2 10 -4z m-2376 -272 c3 -8 2
-12 -4 -9 -6 3 -10 10 -10 16 0 14 7 11 14 -7z m86 -398 c0 -2 -8 -10 -17 -17
-16 -13 -17 -12 -4 4 13 16 21 21 21 13z m-50 -46 c-6 -11 -13 -20 -16 -20 -2
0 0 9 6 20 6 11 13 20 16 20 2 0 0 -9 -6 -20z m57 -18 c8 -5 -2 -8 -25 -9 -28
0 -32 1 -17 7 26 11 28 11 42 2z m130 -204 c-3 -8 -6 -5 -6 6 -1 11 2 17 5 13
3 -3 4 -12 1 -19z m-67 -72 c0 -2 -8 -10 -17 -17 -16 -13 -17 -12 -4 4 13 16
21 21 21 13z m2131 -33 c11 -15 11 -16 0 -6 -7 6 -20 9 -29 6 -10 -4 -13 -2
-8 5 10 17 21 15 37 -5z m-2107 -65 c4 7 13 12 19 12 13 -1 -22 -30 -35 -30
-4 0 -15 15 -24 33 l-16 32 25 -29 c16 -20 26 -25 31 -18z m75 39 c-2 -1 -13
-9 -24 -17 -19 -14 -19 -14 -6 3 7 9 18 17 24 17 6 0 8 -1 6 -3z m2026 -27
c-10 -11 -20 -18 -23 -16 -5 6 21 35 32 36 5 0 1 -9 -9 -20z m-60 -10 c3 -6
-1 -7 -9 -4 -18 7 -21 14 -7 14 6 0 13 -4 16 -10z m-1802 -195 c-3 -9 -8 -14
-10 -11 -3 3 -2 9 2 15 9 16 15 13 8 -4z m1597 -47 c0 -17 -10 -6 -25 25 l-16
32 20 -25 c11 -14 21 -28 21 -32z m-1618 0 c-7 -7 -12 -8 -12 -2 0 14 12 26
19 19 2 -3 -1 -11 -7 -17z"/>
<path d="M1327 3059 c-560 -82 -967 -551 -967 -1114 0 -506 345 -954 836
-1086 122 -33 365 -38 501 -10 206 43 397 145 550 294 335 327 433 830 244
1258 -105 237 -295 436 -526 550 -203 99 -432 138 -638 108z m93 -29 c11 -11
26 -20 33 -20 9 0 9 -2 -1 -9 -9 -5 -13 -23 -11 -49 2 -23 -1 -43 -6 -44 -6
-2 -11 18 -13 45 -3 42 -6 47 -27 47 -13 0 -30 -3 -39 -6 -23 -9 -20 -27 3
-19 27 8 45 -18 31 -45 -6 -11 -15 -18 -21 -14 -6 4 -6 11 2 20 9 11 9 18 1
26 -14 14 -27 -13 -19 -42 3 -13 0 -20 -9 -20 -8 0 -14 4 -14 10 0 5 -6 7 -13
4 -18 -7 -41 22 -33 41 3 8 15 15 28 15 14 0 18 4 13 9 -15 14 -80 -2 -79 -20
1 -8 4 -29 8 -46 12 -51 -10 -39 -23 12 -14 54 -37 63 -27 10 4 -19 3 -35 -1
-35 -19 1 -33 18 -27 33 4 12 1 17 -13 17 -30 0 -33 -9 -18 -47 17 -41 19 -53
5 -53 -5 0 -15 18 -21 40 -12 41 -16 44 -42 34 -14 -5 -13 -11 3 -50 14 -31
16 -44 7 -44 -7 0 -20 19 -30 42 -13 32 -20 39 -29 30 -9 -9 -8 -20 5 -47 21
-43 21 -49 3 -42 -8 3 -20 -1 -26 -9 -17 -19 -37 -18 -61 5 -20 19 -19 41 2
41 6 0 7 -5 3 -11 -4 -8 1 -9 17 -4 21 7 22 6 10 -9 -11 -14 -11 -16 2 -16 27
0 39 25 26 54 -13 29 -32 35 -27 10 2 -10 -3 -19 -9 -21 -7 -3 -13 0 -13 7 0
11 -18 4 -55 -23 -19 -14 -19 -15 9 -52 40 -52 23 -56 -23 -6 -31 33 -44 41
-60 36 -12 -4 -21 -2 -21 4 0 6 12 11 28 12 l27 1 -25 7 c-15 4 -20 10 -13 14
6 4 23 3 38 -3 19 -7 31 -7 41 1 7 6 41 26 76 44 59 32 61 34 35 40 -15 4 -24
11 -21 16 3 5 19 3 37 -4 40 -17 57 -12 57 19 0 28 34 41 78 29 49 -13 177 2
177 20 1 37 35 45 65 15z m270 -10 c0 -5 -7 -10 -15 -10 -8 0 -15 5 -15 10 0
6 7 10 15 10 8 0 15 -4 15 -10z m-64 -20 c32 -6 78 -15 102 -22 39 -10 41 -12
25 -25 -14 -11 -15 -15 -4 -20 7 -3 23 -16 34 -29 15 -17 27 -22 41 -18 28 9
37 25 24 41 -19 23 12 15 86 -22 80 -39 129 -74 106 -75 -8 0 -25 -16 -38 -36
-12 -19 -27 -32 -33 -28 -7 4 -4 13 6 24 20 23 11 43 -16 35 -15 -5 -19 -1
-19 15 0 20 1 20 30 5 34 -17 40 -18 40 -6 0 12 -69 53 -80 46 -4 -2 -15 -20
-24 -40 -9 -19 -21 -35 -26 -35 -14 0 -13 6 10 50 24 48 25 50 2 50 -13 0 -23
-13 -32 -40 -13 -40 -37 -58 -27 -20 4 16 0 20 -19 20 -13 0 -34 11 -46 25
-22 25 -48 33 -48 16 0 -6 5 -13 10 -16 13 -8 13 -25 -1 -25 -5 0 -17 16 -25
35 -18 44 -18 66 1 41 13 -17 15 -18 21 -2 8 21 7 22 -32 30 -27 6 -32 4 -38
-16 -3 -13 -6 -33 -6 -45 0 -13 -4 -23 -10 -23 -5 0 -10 11 -10 25 0 14 -7 28
-15 32 -23 8 -28 -2 -15 -26 6 -12 7 -21 1 -21 -14 0 -55 70 -46 78 4 4 10 1
12 -5 6 -18 23 -16 23 2 0 9 -9 15 -25 15 -14 0 -25 5 -25 10 0 13 12 13 86 0z
m194 -55 c16 -19 6 -45 -17 -45 -13 0 -14 3 -5 12 15 15 15 28 1 28 -5 0 -7
-4 -4 -10 3 -5 2 -10 -4 -10 -14 0 -23 18 -16 30 9 15 31 12 45 -5z m-220 -90
c203 -30 384 -125 521 -274 117 -126 193 -271 225 -430 20 -103 15 -323 -10
-416 -24 -90 -99 -238 -158 -313 -380 -488 -1110 -460 -1448 56 -95 145 -142
304 -143 482 -2 255 82 458 263 640 147 148 296 225 495 256 108 16 144 16
255 -1z m-744 -53 c-3 -5 8 -25 24 -44 28 -34 31 -59 5 -38 -9 8 -14 4 -19
-15 -4 -14 -11 -25 -16 -25 -5 0 -7 7 -4 15 4 9 0 15 -9 15 -8 0 -20 7 -27 15
-7 9 -19 14 -27 11 -26 -10 -12 9 30 41 44 34 52 38 43 25z m1305 -48 c10 -13
10 -19 0 -36 -14 -23 -9 -33 15 -24 9 3 14 12 10 21 -12 32 12 11 74 -65 64
-79 157 -238 184 -315 34 -100 55 -193 37 -164 -9 14 -18 15 -48 8 -50 -11
-53 -11 -53 5 0 8 16 16 40 20 32 5 40 10 40 27 0 18 -4 20 -25 15 -14 -3 -37
-9 -51 -12 -20 -5 -25 -3 -22 7 3 8 14 15 26 17 25 4 30 22 7 22 -8 0 -15 5
-15 10 0 6 5 10 10 10 6 0 10 7 10 16 0 25 -33 12 -41 -16 -5 -22 -7 -23 -14
-7 -8 18 18 67 35 67 14 0 43 -47 36 -58 -7 -11 18 -35 27 -26 5 5 -4 35 -31
106 l-11 27 -41 -20 c-44 -22 -68 -17 -36 6 10 8 23 16 28 17 14 5 -2 38 -19
38 -8 0 -17 -9 -20 -20 -3 -11 -9 -20 -14 -20 -16 0 -10 27 11 51 l20 24 19
-23 c11 -12 21 -28 24 -35 2 -6 7 -9 11 -6 3 3 -4 25 -16 48 -19 34 -27 41
-45 36 -28 -7 -40 11 -12 18 22 6 19 17 -14 61 -14 19 -15 18 -51 -9 -49 -37
-60 -23 -13 16 43 35 40 60 -4 29 l-29 -21 0 25 c0 18 4 24 14 20 20 -8 26 8
11 30 -13 18 -15 17 -44 -4 -17 -12 -31 -26 -31 -31 0 -5 -4 -9 -10 -9 -16 0
-12 22 8 37 16 13 15 14 -6 8 -13 -4 -29 -1 -37 5 -17 14 -21 75 -5 65 6 -4 8
-15 5 -25 -6 -20 9 -35 25 -25 8 5 8 11 0 20 -9 10 -6 14 12 18 l23 4 -22 8
c-13 4 -23 11 -23 16 0 15 27 10 41 -7z m-1447 -88 c-3 -7 9 -25 26 -39 30
-25 37 -45 14 -39 -6 1 -17 -5 -24 -13 -7 -8 -24 -15 -37 -15 -21 0 -23 3 -14
14 19 22 -7 31 -30 10 -26 -23 -24 -28 16 -50 19 -10 35 -24 35 -31 0 -19 -9
-16 -47 13 -19 14 -36 24 -37 23 -17 -20 -24 -47 -15 -56 8 -8 7 -18 -1 -33
-7 -14 -8 -26 -3 -31 16 -16 43 2 43 27 0 13 5 24 10 24 6 0 10 -7 10 -16 0
-11 6 -14 20 -9 11 3 20 2 20 -3 0 -5 -9 -12 -21 -15 -15 -4 -19 -11 -14 -25
3 -11 1 -23 -5 -27 -6 -3 -10 3 -10 14 0 12 -3 21 -7 21 -12 -1 -37 -24 -49
-45 -8 -13 -22 -20 -40 -19 -26 1 -43 -10 -44 -26 0 -3 21 -11 47 -18 34 -10
43 -16 35 -24 -8 -8 -22 -7 -51 4 -36 15 -40 14 -46 0 -4 -10 1 -22 12 -30 10
-7 17 -18 15 -24 -2 -6 3 -8 10 -5 7 3 21 8 31 12 35 15 16 -15 -24 -35 -41
-21 -63 -20 -41 2 16 16 15 28 -2 28 -15 0 -26 -21 -26 -51 0 -10 -4 -19 -10
-19 -5 0 -10 4 -10 9 0 26 84 254 106 289 14 22 14 25 -3 37 -24 18 -8 46 35
60 19 7 47 32 74 68 41 54 63 73 52 43z m1581 -123 c-4 -10 -10 -30 -13 -45
-4 -27 -16 -36 -25 -20 -7 11 24 82 35 82 6 0 7 -8 3 -17z m225 -463 c0 -5 -4
-10 -10 -10 -17 0 -11 -47 6 -54 9 -4 14 -9 11 -12 -10 -10 -107 17 -107 30 0
7 19 22 43 33 48 25 57 27 57 13z m-1985 -10 c3 -5 -11 -18 -32 -29 l-38 -20
33 -1 c17 0 32 -4 32 -10 0 -13 -70 -13 -90 0 -17 10 -16 12 25 33 l30 16 -32
1 c-18 0 -33 5 -33 10 0 13 97 13 105 0z m-51 -100 c25 -10 46 -24 46 -29 0
-5 -17 -15 -37 -22 -21 -6 -43 -16 -50 -21 -7 -5 -14 -5 -18 2 -3 5 1 13 9 16
20 8 21 43 1 50 -16 7 -21 24 -6 24 5 0 30 -9 55 -20z m2046 -15 l0 -35 -56 0
c-34 0 -53 4 -49 10 3 6 24 10 46 10 35 0 39 3 39 25 0 14 5 25 10 25 6 0 10
-16 10 -35z m-2000 -95 c0 -22 -4 -40 -10 -40 -5 0 -10 6 -10 13 0 9 -12 11
-40 9 -25 -3 -40 0 -40 7 0 6 17 11 40 11 33 0 40 3 40 20 0 11 5 20 10 20 6
0 10 -18 10 -40z m2000 30 c0 -5 -7 -10 -15 -10 -18 0 -21 -46 -2 -53 6 -2 9
-7 6 -11 -9 -10 -100 36 -96 48 7 21 107 46 107 26z m-92 -87 c-2 -14 5 -19
35 -21 24 -2 37 -8 37 -18 0 -14 -20 -13 -67 2 -7 2 -13 -3 -13 -11 0 -8 -4
-15 -10 -15 -11 0 -13 24 -4 58 7 26 26 30 22 5z m-1898 -2 c0 -8 -55 -21 -92
-21 -31 0 -19 19 15 23 60 7 77 7 77 -2z m0 -45 c30 -37 -17 -94 -64 -77 -28
11 -34 60 -10 78 24 17 59 17 74 -1z m1908 -42 c7 -13 13 -14 31 -5 17 9 21 9
21 -3 0 -7 -11 -17 -25 -20 -30 -8 -32 -22 -4 -29 12 -3 18 -10 15 -15 -6 -10
-83 4 -98 17 -11 10 20 71 36 71 8 0 19 -7 24 -16z m-1902 -73 c-31 -32 -34
-46 -7 -31 24 12 41 13 41 1 0 -13 -89 -40 -96 -29 -4 5 6 23 22 39 29 30 27
36 -7 19 -11 -6 -25 -8 -31 -4 -13 8 82 44 95 37 5 -3 -3 -17 -17 -32z m1929
-31 c-3 -5 -12 -10 -19 -10 -16 0 -28 -37 -15 -46 11 -6 12 -24 2 -24 -16 1
-83 71 -78 80 4 6 31 10 61 10 34 0 53 -4 49 -10z m-1904 -103 l-43 -42 7 33
c6 29 4 34 -14 39 -12 3 -21 9 -21 14 0 10 92 16 105 6 5 -4 -9 -25 -34 -50z
m1799 36 c0 -3 -7 -15 -16 -25 -14 -14 -14 -20 -4 -33 16 -20 46 -19 54 1 9
24 8 26 -15 19 -19 -6 -20 -5 -9 14 9 17 15 19 30 11 24 -13 25 -28 4 -58 -18
-26 -50 -28 -76 -5 -22 20 -23 41 -1 65 16 18 33 24 33 11z m-1730 -54 c0 -5
-6 -9 -12 -9 -7 0 -24 -9 -38 -20 -20 -15 -23 -21 -12 -31 14 -15 16 -29 2
-29 -5 0 -16 13 -25 29 -15 30 -15 30 28 54 41 23 57 25 57 6z m1713 -55 c38
-7 52 -24 18 -24 -22 0 -32 -20 -24 -49 8 -33 -9 -24 -39 20 -43 61 -38 66 45
53z m-1659 -33 c5 -8 -62 -61 -77 -61 -18 0 -4 20 31 43 44 31 40 29 46 18z
m12 -69 c-22 -43 -20 -49 8 -23 14 13 30 21 37 19 7 -2 -6 -18 -29 -37 -49
-38 -69 -34 -46 10 17 34 14 48 -6 24 -13 -15 -40 -21 -40 -7 1 13 75 60 83
52 5 -4 2 -21 -7 -38z m1544 7 c0 -10 9 -28 20 -39 25 -25 17 -49 -8 -27 -10
8 -32 18 -50 22 -18 4 -30 11 -26 16 3 5 16 6 30 3 25 -6 30 1 15 26 -6 8 -7
18 -5 22 9 13 24 -2 24 -23z m-1462 -51 c15 -15 16 -48 2 -48 -5 0 -10 9 -10
20 0 11 -4 20 -10 20 -12 0 -13 -20 -1 -39 14 -21 2 -41 -25 -41 -28 0 -52 36
-35 53 11 11 12 9 15 -15 0 -7 9 -14 19 -16 15 -3 16 0 6 22 -20 43 8 75 39
44z m1412 -13 c0 -3 -12 -10 -26 -15 -28 -11 -29 -36 -2 -54 14 -8 22 -7 35 6
9 10 13 21 9 25 -4 4 -11 1 -15 -6 -5 -8 -11 -9 -15 -3 -3 5 1 15 10 23 12 10
18 9 30 -3 32 -32 -23 -81 -65 -59 -43 24 -33 91 14 91 14 0 25 -2 25 -5z
m-1347 -50 c32 -28 35 -39 8 -30 -13 4 -26 -3 -44 -25 -14 -16 -28 -30 -31
-30 -15 0 -4 29 19 50 17 16 22 27 15 34 -12 12 -13 26 -2 26 4 0 19 -12 35
-25z m1286 -42 c19 -23 20 -29 8 -47 -19 -29 -52 -31 -76 -7 -25 25 -26 44 -5
65 23 23 50 19 73 -11z m-1239 -1 c0 -4 20 -18 45 -32 49 -27 52 -35 30 -64
-19 -25 -19 -42 0 -50 10 -3 20 6 31 27 9 18 18 33 19 35 5 6 95 -42 95 -51 0
-5 -7 -6 -16 -3 -11 4 -19 -4 -30 -29 -8 -19 -19 -35 -24 -35 -13 0 -13 4 4
45 12 28 12 36 1 45 -10 9 -17 4 -31 -19 -23 -39 -38 -44 -66 -22 -22 19 -22
20 -5 55 21 45 21 41 -3 43 -12 1 -26 -9 -37 -28 -18 -29 -33 -38 -33 -18 0 6
9 22 20 36 16 21 18 29 8 41 -11 12 -16 10 -38 -17 -39 -46 -57 -38 -20 9 29
37 50 50 50 32z m1100 -49 c0 -5 9 -19 19 -32 15 -20 21 -22 39 -12 33 18 34
-3 1 -23 -17 -10 -32 -16 -33 -14 -27 37 -46 68 -46 77 0 12 20 16 20 4z m-14
-48 c24 -37 6 -75 -35 -75 -32 0 -51 22 -51 57 0 47 59 59 86 18z m-96 -51
c11 -26 20 -48 20 -50 0 -10 -25 -2 -51 17 -33 23 -36 19 -13 -15 9 -15 11
-26 5 -30 -8 -5 -51 72 -51 90 0 10 25 2 51 -17 31 -22 37 -16 14 15 -12 16
-12 36 0 36 2 0 13 -21 25 -46z m-702 6 c6 0 12 -7 12 -16 0 -16 -2 -16 -47 3
-7 3 -13 0 -13 -7 0 -6 9 -14 20 -17 11 -3 20 -9 20 -14 0 -5 -11 -7 -24 -3
-13 3 -27 1 -31 -5 -6 -10 1 -14 43 -27 7 -2 11 -8 7 -14 -5 -9 -48 4 -68 20
-4 4 0 26 9 49 14 35 20 42 38 37 12 -3 27 -6 34 -6z m611 -37 c7 -21 15 -44
17 -50 3 -7 -1 -13 -10 -13 -10 0 -16 8 -16 21 0 14 -5 19 -17 17 -11 -2 -18
-12 -18 -25 0 -40 -14 -35 -25 8 -7 24 -14 47 -16 51 -2 4 1 10 7 13 6 4 13
-2 16 -14 8 -30 39 -23 35 7 -5 36 14 25 27 -15z m-485 -9 c20 -19 20 -34 0
-62 -26 -38 -84 -24 -84 21 0 51 50 76 84 41z m384 -2 c3 -9 -3 -11 -22 -6
-23 5 -26 3 -26 -20 0 -27 30 -50 38 -28 2 7 10 12 18 12 12 0 12 -4 4 -20
-12 -22 -49 -27 -68 -8 -16 16 -15 61 0 76 16 16 50 12 56 -6z m-310 2 c12 -4
22 -10 22 -15 0 -5 -11 -7 -25 -3 -19 5 -25 2 -25 -10 0 -9 8 -16 20 -16 11 0
20 -5 20 -11 0 -6 -9 -8 -20 -4 -16 5 -20 2 -20 -14 0 -12 -6 -21 -12 -21 -9
0 -12 15 -10 50 4 51 8 55 50 44z m222 -4 c0 -5 -11 -10 -25 -10 -16 0 -25 -6
-25 -15 0 -11 7 -14 25 -9 15 4 25 2 25 -5 0 -6 -11 -11 -25 -11 -16 0 -25 -6
-25 -16 0 -12 7 -14 30 -9 19 4 30 3 30 -4 0 -6 -4 -11 -9 -11 -5 0 -23 -3
-40 -6 l-31 -6 0 50 c0 45 3 51 23 55 39 8 47 7 47 -3z m-80 -10 c0 -5 -7 -10
-15 -10 -11 0 -15 -11 -15 -40 0 -22 -4 -40 -10 -40 -5 0 -10 18 -10 40 0 29
-4 40 -15 40 -8 0 -15 5 -15 10 0 6 18 10 40 10 22 0 40 -4 40 -10z"/>
<path d="M1375 3030 c-3 -5 1 -13 10 -16 22 -9 29 1 11 15 -10 8 -16 9 -21 1z"/>
<path d="M1123 2975 c-9 -24 1 -27 37 -12 25 11 29 15 15 21 -27 10 -45 7 -52
-9z"/>
<path d="M1300 2945 c0 -8 7 -15 15 -15 8 0 15 7 15 15 0 8 -7 15 -15 15 -8 0
-15 -7 -15 -15z"/>
<path d="M1610 2975 c0 -8 7 -15 15 -15 8 0 15 7 15 15 0 8 -7 15 -15 15 -8 0
-15 -7 -15 -15z"/>
<path d="M1345 2823 c-183 -25 -383 -137 -514 -288 -225 -257 -274 -641 -121
-952 158 -320 508 -515 853 -474 352 42 624 270 732 611 20 65 28 114 32 205
7 141 -10 242 -61 370 -103 261 -352 469 -623 521 -69 13 -227 17 -298 7z
m-207 -295 c-25 -45 -47 -70 -84 -94 -58 -38 -108 -83 -101 -90 3 -3 16 1 29
9 27 18 138 48 138 38 0 -24 -166 -131 -202 -131 -8 0 -25 -22 -38 -50 -29
-61 -39 -58 -16 5 15 38 16 51 6 81 -16 48 -8 114 22 171 38 75 51 69 46 -23
-3 -44 -8 -88 -12 -99 -6 -16 -4 -15 13 5 11 14 24 34 29 45 33 77 59 119 84
137 33 23 98 57 111 58 5 0 -6 -28 -25 -62z m774 -15 c15 -14 36 -46 48 -72
11 -25 30 -61 41 -78 19 -30 19 -34 4 -39 -9 -4 -28 -1 -43 7 -15 7 -31 15
-36 18 -5 2 -6 -1 -2 -7 12 -20 110 -62 120 -52 13 13 18 99 6 118 -8 15 -10
15 -11 -3 -1 -11 0 -30 1 -42 1 -13 -3 -23 -8 -23 -5 0 -12 10 -16 23 -9 35
-7 157 3 157 14 0 59 -99 66 -145 3 -24 0 -56 -8 -79 -12 -35 -12 -45 5 -88
10 -27 18 -58 18 -70 0 -12 3 -18 7 -15 3 4 5 39 4 78 -2 66 21 159 41 159 13
0 28 -64 28 -118 0 -43 -7 -67 -31 -110 -28 -49 -30 -59 -23 -110 l7 -57 12
47 c14 53 44 105 76 134 l22 19 -5 -61 c-6 -68 -24 -108 -72 -162 -18 -20 -36
-53 -39 -72 -4 -19 -9 -48 -13 -65 -4 -25 -1 -22 23 20 25 45 101 115 124 115
14 0 -25 -93 -57 -135 -15 -20 -50 -52 -76 -70 -39 -26 -128 -131 -128 -151 0
-3 20 11 43 30 37 30 162 96 182 96 4 0 -8 -20 -26 -45 -38 -54 -106 -99 -178
-121 -29 -8 -73 -31 -99 -51 -50 -37 -71 -66 -30 -39 30 20 165 49 186 41 11
-4 4 -13 -25 -35 -58 -43 -118 -61 -188 -59 -39 1 -79 -4 -110 -16 -72 -27
-75 -35 -11 -28 60 6 185 -22 169 -38 -5 -5 -37 -16 -73 -25 -72 -18 -129 -14
-193 14 -40 18 -117 19 -117 3 0 -4 15 -12 33 -19 39 -15 100 -69 92 -82 -10
-17 -33 -11 -62 16 -15 14 -47 37 -70 51 l-43 25 -45 -27 c-25 -14 -60 -39
-78 -55 -28 -24 -35 -26 -50 -15 -16 12 -15 15 20 44 21 17 53 37 71 43 17 7
32 15 32 19 0 14 -85 16 -112 2 -62 -30 -124 -36 -208 -17 -44 9 -80 20 -80
24 0 16 120 43 169 38 28 -3 51 -3 51 -1 0 2 -25 14 -56 28 -48 21 -62 24 -94
15 -40 -11 -112 5 -181 40 -87 45 -59 70 49 45 35 -8 72 -20 84 -26 40 -22 27
-1 -21 34 -27 20 -74 43 -104 52 -30 9 -75 29 -101 46 -44 30 -113 105 -104
115 6 5 68 -18 113 -43 17 -8 51 -36 77 -61 28 -27 52 -43 61 -39 17 6 28 75
16 97 -6 10 -9 4 -9 -20 -1 -19 -5 -43 -9 -54 -6 -17 -11 -14 -37 20 -17 22
-39 53 -49 71 -10 17 -29 36 -42 42 -40 18 -108 88 -130 133 -27 56 -37 88
-25 88 19 0 94 -63 110 -91 36 -64 40 -64 27 0 -9 43 -22 70 -41 89 -41 41
-74 119 -74 176 l0 49 21 -19 c26 -23 64 -89 75 -129 8 -28 8 -27 14 20 4 35
2 57 -9 75 -35 60 -44 85 -42 136 0 30 7 69 14 86 l14 33 23 -44 c19 -38 22
-56 18 -111 -6 -79 8 -87 55 -33 27 31 127 92 127 78 0 -4 -18 -32 -39 -63
-36 -54 -103 -112 -128 -112 -6 0 -14 -33 -18 -76 -7 -77 -1 -110 10 -58 12
55 28 86 65 125 20 21 39 39 44 39 11 0 -5 -71 -25 -111 -9 -19 -35 -52 -57
-71 -44 -39 -43 -31 -16 -155 8 -41 19 -24 19 30 0 43 6 60 33 100 18 26 37
47 42 47 27 0 1 -146 -35 -202 l-24 -36 30 -56 c17 -31 33 -56 35 -56 3 0 2
20 -1 45 -7 44 10 145 25 145 17 0 43 -132 37 -196 l-5 -65 57 -46 c74 -61
261 -149 261 -124 0 6 -7 11 -15 11 -39 0 -135 129 -135 182 0 16 2 16 34 -3
55 -32 96 -79 128 -146 24 -51 34 -63 53 -63 13 0 35 -4 49 -10 17 -6 44 -6
80 2 47 9 56 15 67 42 27 65 72 127 120 162 28 20 52 34 55 31 4 -3 -2 -29
-11 -57 -19 -58 -63 -113 -107 -136 -57 -30 -20 -25 56 7 75 31 76 32 76 68 1
46 38 137 76 184 16 20 31 37 34 37 6 0 3 -65 -6 -119 -3 -21 -22 -51 -51 -82
-25 -27 -42 -49 -38 -49 11 0 72 46 113 84 31 29 32 32 26 88 -6 56 20 198 37
198 14 0 31 -92 25 -137 -7 -54 -21 -74 -29 -44 -3 12 -2 21 2 21 4 0 7 17 8
37 1 33 -1 35 -12 19 -12 -16 -13 -46 -2 -98 6 -32 15 -30 33 9 10 21 29 55
42 76 21 35 22 41 8 56 -31 35 -56 106 -56 165 l0 59 21 -19 c36 -32 59 -90
59 -144 0 -71 15 -55 30 33 l12 74 -44 45 c-45 44 -83 121 -76 152 2 13 11 9
42 -21 40 -39 66 -87 66 -123 0 -11 5 -20 11 -20 6 0 8 17 4 48 -12 91 -15 97
-49 116 -19 10 -47 32 -64 50 -38 41 -77 106 -62 106 23 0 89 -40 114 -71 36
-42 42 -32 15 24 -18 38 -30 48 -77 67 -62 26 -175 120 -144 120 32 0 113 -28
133 -46 25 -22 24 -10 -1 26 -11 16 -41 38 -66 50 -47 23 -77 55 -120 128
l-25 42 58 -25 c32 -15 70 -38 85 -52z m-382 -71 c0 -25 -8 -44 -26 -63 -19
-19 -27 -40 -28 -66 -2 -56 -36 -72 -36 -17 0 29 14 58 46 97 25 29 33 90 14
102 -5 3 -10 12 -10 18 1 31 40 -39 40 -71z m-54 -6 c-2 -42 -12 -55 -21 -27
-5 17 8 61 19 61 1 0 2 -16 2 -34z m-82 -82 c9 -8 16 -28 16 -44 0 -16 5 -32
10 -35 15 -9 12 -25 -4 -25 -17 0 -26 22 -26 60 0 16 -4 32 -10 35 -10 6 -14
25 -6 25 3 0 12 -7 20 -16z m147 -22 c12 -31 3 -75 -14 -69 -7 2 -12 12 -13
23 -1 10 -4 29 -8 41 -15 49 17 53 35 5z m66 7 c-9 -11 -13 -27 -11 -33 3 -7
0 -25 -6 -41 -8 -21 -14 -25 -22 -17 -8 8 -8 15 2 26 7 9 10 22 7 30 -3 8 3
26 15 41 24 31 37 26 15 -6z m-300 -35 c39 -8 92 -59 76 -75 -7 -7 -19 -1 -41
20 -17 17 -38 31 -48 31 -22 0 -54 28 -54 48 0 13 3 13 18 -1 10 -9 32 -20 49
-23z m433 1 c-7 -9 -32 -24 -55 -34 -24 -11 -48 -29 -55 -41 -9 -17 -14 -19
-25 -10 -11 9 -11 16 -3 30 15 23 61 50 85 50 11 0 28 9 39 21 21 23 34 8 14
-16z m-180 -81 c56 -34 79 -122 44 -172 -14 -20 -23 -22 -115 -22 l-99 0 -16
34 c-28 57 3 143 60 166 35 14 96 11 126 -6z m-204 -17 c13 -13 -8 -27 -25
-17 -10 5 -21 7 -24 3 -7 -7 -37 15 -37 27 0 8 77 -4 86 -13z m355 -1 c-14
-17 -70 -26 -78 -13 -8 14 19 28 44 22 12 -3 25 0 28 6 4 6 9 8 12 5 3 -3 1
-12 -6 -20z m-377 -61 c-4 -10 -20 -15 -44 -15 -27 0 -48 -9 -76 -31 -32 -25
-45 -30 -73 -25 -30 5 -76 34 -68 43 2 2 17 -4 34 -12 35 -17 57 -12 118 29
44 30 119 37 109 11z m424 -10 c46 -39 79 -48 113 -31 34 17 39 4 7 -18 -34
-24 -71 -19 -113 14 -27 22 -49 30 -76 30 -28 0 -39 4 -39 15 0 26 73 19 108
-10z m-558 5 c0 -5 -11 -10 -24 -10 -13 0 -33 -3 -43 -7 -16 -6 -16 -5 -4 10
14 18 71 24 71 7z m650 0 c21 -13 10 -18 -32 -12 -21 2 -35 8 -32 13 7 12 45
11 64 -1z m-541 -45 c18 5 36 -16 24 -29 -12 -12 -68 -5 -88 10 -17 12 -18 16
-5 24 8 5 21 5 32 -1 10 -6 27 -7 37 -4z m427 -21 c-11 -8 -35 -14 -53 -14
-27 0 -33 4 -33 21 0 15 5 19 19 14 10 -3 29 -1 42 4 33 12 51 -5 25 -25z
m-169 -146 c-58 -83 -165 -208 -179 -208 -27 0 23 78 126 195 68 78 69 80 43
83 -45 5 -67 -14 -67 -58 0 -22 -3 -40 -8 -40 -4 0 -6 18 -4 39 3 32 0 41 -17
51 -21 11 -96 6 -119 -9 -9 -5 -92 -231 -92 -251 0 -4 14 -5 30 -2 51 7 120
-18 162 -60 21 -21 40 -38 43 -38 3 0 21 18 41 39 41 46 87 64 150 59 27 -2
42 1 40 7 -9 21 -54 162 -65 203 -7 23 -16 42 -21 42 -6 0 -10 5 -10 10 0 26
32 5 48 -32 41 -92 114 -280 110 -283 -6 -7 -228 -75 -243 -75 -7 0 -15 -9
-18 -20 -3 -12 -14 -20 -25 -20 -33 0 -51 11 -45 26 3 9 -2 14 -13 14 -43 2
-249 69 -246 81 11 46 112 280 128 297 11 11 40 26 64 31 60 14 66 14 85 -5
12 -12 19 -13 30 -4 8 6 32 10 54 9 23 -2 46 2 53 9 9 9 14 9 16 2 3 -7 -21
-48 -51 -92z m-78 -210 c0 -69 -2 -78 -11 -55 -9 26 -3 137 8 137 2 0 4 -37 3
-82z m-396 -83 c16 -20 37 -55 47 -78 21 -47 41 -127 32 -127 -16 0 -72 48
-88 74 -16 27 -37 166 -24 166 3 0 18 -16 33 -35z"/>
<path d="M1055 2496 c-19 -21 -35 -42 -35 -47 0 -15 47 19 65 48 27 40 8 39
-30 -1z"/>
<path d="M896 2413 c-9 -33 -3 -115 9 -119 7 -3 28 2 46 10 l34 14 -32 1 c-39
1 -51 21 -46 74 5 38 -2 50 -11 20z"/>
<path d="M1000 2340 c-13 -8 -12 -10 3 -10 9 0 17 5 17 10 0 12 -1 12 -20 0z"/>
<path d="M1840 2523 c0 -9 38 -46 75 -74 19 -14 19 -13 4 10 -18 29 -79 78
-79 64z"/>
<path d="M798 2278 c-8 -21 -2 -88 9 -99 7 -7 7 54 0 101 -2 12 -4 12 -9 -2z"/>
<path d="M2138 2273 c-2 -10 -1 -36 3 -58 6 -41 7 -39 15 33 5 40 -10 60 -18
25z"/>
<path d="M2009 2173 c6 -13 26 -30 44 -39 31 -16 32 -16 12 2 -12 11 -31 28
-44 39 l-24 20 12 -22z"/>
<path d="M900 2150 c-19 -16 -32 -29 -28 -30 4 0 22 14 40 30 42 39 33 39 -12
0z"/>
<path d="M744 2054 c8 -31 56 -105 56 -86 0 14 -50 112 -57 112 -3 0 -2 -12 1
-26z"/>
<path d="M2182 2045 c-7 -14 -8 -27 -2 -30 5 -3 12 6 16 20 9 35 0 41 -14 10z"/>
<path d="M756 1833 c33 -44 65 -73 79 -72 6 0 5 3 -2 5 -7 3 -28 28 -48 55
-19 27 -40 49 -46 49 -6 0 1 -17 17 -37z"/>
<path d="M910 1851 c-12 -24 -13 -51 -1 -51 5 0 11 16 13 35 5 40 3 43 -12 16z"/>
<path d="M2022 1845 c1 -16 8 -39 15 -50 12 -18 13 -17 7 15 -10 50 -24 73
-22 35z"/>
<path d="M2195 1862 c-6 -4 -23 -24 -39 -46 -21 -29 -24 -36 -10 -28 24 12 49
41 57 65 7 19 6 20 -8 9z"/>
<path d="M825 1625 c31 -26 45 -31 45 -17 0 5 -17 16 -37 25 l-38 17 30 -25z"/>
<path d="M2108 1630 c-41 -22 -58 -41 -30 -33 17 4 83 52 72 52 -3 0 -22 -9
-42 -19z"/>
<path d="M1840 1566 c-5 -15 -13 -39 -17 -54 -6 -24 -5 -26 10 -13 17 13 34
77 23 88 -3 3 -10 -6 -16 -21z"/>
<path d="M1234 1482 c18 -34 76 -90 76 -73 0 16 -58 88 -76 95 -12 5 -12 1 0
-22z"/>
<path d="M1665 1450 c-21 -28 -36 -53 -34 -55 10 -9 89 79 89 99 0 18 -23 0
-55 -44z"/>
<path d="M994 1440 c45 -23 62 -25 72 -9 4 7 1 10 -7 7 -8 -3 -31 1 -53 8 -54
19 -58 17 -12 -6z"/>
<path d="M1934 1450 c-12 -5 -25 -13 -28 -19 -8 -12 64 6 79 20 12 11 -22 11
-51 -1z"/>
<path d="M1265 1344 c-5 -2 -36 -5 -68 -6 -32 -2 -56 -7 -55 -13 3 -11 134
-12 145 -1 9 8 -9 25 -22 20z"/>
<path d="M1660 1330 c0 -18 154 -27 165 -10 3 6 -2 10 -12 10 -10 1 -48 2 -85
4 -38 2 -68 0 -68 -4z"/>
<path d="M1449 2207 c-51 -20 -76 -98 -43 -132 13 -12 33 -15 98 -13 l81 3 3
42 c4 52 -9 77 -49 97 -36 18 -52 19 -90 3z"/>
<path d="M1680 1877 c0 -3 13 -42 30 -86 l29 -81 -60 0 c-67 0 -114 -17 -150
-56 -27 -29 -24 -30 28 -4 48 23 115 39 161 40 40 0 40 8 1 107 -29 74 -39 94
-39 80z"/>
<path d="M1236 1767 c-10 -29 -20 -57 -22 -62 -3 -6 29 -16 73 -23 43 -7 100
-23 126 -36 58 -28 57 -12 -2 29 -34 24 -54 30 -111 33 -39 2 -70 5 -70 6 0 1
7 24 16 50 9 26 14 49 12 51 -2 2 -12 -19 -22 -48z"/>
<path d="M1095 1561 c4 -37 9 -45 24 -40 5 2 1 19 -9 39 l-19 35 4 -34z"/>
<path d="M822 2768 c-14 -14 2 -38 24 -38 18 0 18 24 1 39 -10 8 -17 7 -25 -1z"/>
<path d="M686 2632 c-3 -6 -2 -13 4 -17 5 -3 10 -16 10 -28 0 -20 1 -20 17 -4
16 16 16 18 -4 38 -12 13 -23 17 -27 11z"/>
<path d="M565 2529 c-4 -6 -4 -13 -1 -16 8 -8 36 5 36 17 0 13 -27 13 -35 -1z"/>
<path d="M557 2429 c-9 -22 -13 -47 -10 -55 7 -18 34 -15 41 5 3 10 -2 11 -19
7 -21 -6 -22 -5 -8 6 9 7 16 20 16 28 0 8 4 23 8 33 4 9 3 17 -2 17 -6 0 -17
-18 -26 -41z"/>
<path d="M2455 2040 c-3 -5 1 -10 9 -10 9 0 16 5 16 10 0 6 -4 10 -9 10 -6 0
-13 -4 -16 -10z"/>
<path d="M460 1940 c0 -5 6 -10 14 -10 8 0 18 5 21 10 3 6 -3 10 -14 10 -12 0
-21 -4 -21 -10z"/>
<path d="M2450 1860 c0 -5 7 -10 15 -10 8 0 15 5 15 10 0 6 -7 10 -15 10 -8 0
-15 -4 -15 -10z"/>
<path d="M472 1738 c-16 -19 1 -40 29 -36 16 2 24 10 24 23 0 24 -36 33 -53
13z"/>
<path d="M2414 1696 c-8 -22 3 -33 18 -18 9 9 9 15 0 24 -9 9 -13 7 -18 -6z"/>
<path d="M2398 1588 c9 -9 15 -9 24 0 9 9 7 12 -12 12 -19 0 -21 -3 -12 -12z"/>
<path d="M550 1534 c0 -9 5 -14 12 -12 18 6 21 28 4 28 -9 0 -16 -7 -16 -16z"/>
<path d="M2312 1409 c2 -6 8 -10 13 -10 5 0 11 4 13 10 2 6 -4 11 -13 11 -9 0
-15 -5 -13 -11z"/>
<path d="M2075 1180 c-8 -13 13 -50 28 -50 23 0 37 22 26 42 -10 19 -44 25
-54 8z"/>
<path d="M1924 1075 c-9 -23 3 -45 25 -45 26 0 34 15 21 40 -13 24 -38 26 -46
5z"/>
<path d="M1254 975 c-9 -23 3 -45 25 -45 20 0 37 32 26 50 -9 15 -45 12 -51
-5z"/>
<path d="M2275 754 c-306 -171 -561 -256 -775 -256 -234 -1 -420 54 -788 233
l-116 57 -68 -36 -68 -36 0 -82 0 -81 93 -33 c344 -120 483 -162 647 -194 237
-47 453 -39 705 24 107 27 301 95 563 198 l43 17 -3 85 -3 84 -65 33 c-36 17
-69 32 -75 32 -5 0 -46 -20 -90 -45z m-1492 -124 c79 -43 226 -96 347 -126 41
-10 67 -20 58 -22 -16 -3 -38 -56 -38 -89 0 -7 -7 -13 -15 -13 -12 0 -13 5 -4
26 11 31 12 29 -23 38 -17 4 -28 2 -31 -7 -4 -9 -8 -8 -16 3 -15 21 -14 30 5
30 23 0 13 31 -14 41 -21 8 -25 4 -44 -41 -11 -28 -25 -50 -30 -50 -6 0 -8 6
-5 13 18 49 18 55 -7 59 -14 3 -27 0 -30 -6 -3 -7 -11 -3 -21 9 -20 26 -7 29
44 12 37 -13 46 -11 39 10 -2 6 -81 38 -105 43 0 0 -13 -20 -27 -45 -15 -25
-31 -45 -36 -45 -15 0 -13 6 15 50 30 48 30 47 5 60 -18 9 -23 5 -47 -35 -16
-25 -34 -45 -40 -45 -18 0 -16 7 12 44 l25 32 -45 22 c-33 16 -45 18 -45 8 0
-7 12 -18 26 -25 21 -9 24 -14 14 -26 -7 -8 -21 -15 -31 -15 -12 0 -16 -5 -13
-15 4 -8 1 -15 -5 -15 -6 0 -11 5 -11 12 0 6 -10 22 -22 35 -26 27 -16 44 11
19 11 -10 29 -16 43 -13 l23 4 -22 8 c-23 7 -39 38 -28 55 4 6 26 0 57 -16 27
-14 52 -23 55 -20 3 2 -22 19 -56 35 -34 17 -61 33 -61 36 0 11 23 3 93 -35z
m1432 30 c-4 -6 10 -29 29 -52 19 -22 33 -45 29 -51 -3 -5 -15 3 -27 18 -19
24 -25 26 -44 16 -13 -7 -19 -17 -16 -26 4 -9 1 -15 -7 -14 -20 1 -57 17 -41
18 14 1 15 10 3 29 -6 10 -13 11 -34 1 -15 -7 -27 -15 -27 -19 0 -4 13 -25 30
-48 20 -29 26 -43 18 -48 -7 -4 -14 -2 -16 4 -2 6 -12 22 -23 34 l-19 23 -6
-22 c-6 -23 -24 -32 -24 -13 0 16 -40 11 -47 -6 -7 -19 13 -34 45 -34 12 0 22
-5 22 -11 0 -14 -56 -5 -77 12 -28 24 -3 62 42 62 26 0 53 22 41 34 -4 4 -28
-1 -54 -11 -26 -10 -59 -21 -74 -23 -16 -3 -28 -7 -28 -8 0 -2 9 -25 20 -51
19 -43 19 -75 1 -46 -6 10 -15 10 -35 2 -31 -11 -66 2 -66 25 0 18 40 46 53
38 6 -4 2 -9 -8 -13 -17 -6 -16 -7 5 -13 31 -8 33 -5 21 26 -10 25 -10 25 -57
11 -26 -8 -50 -12 -52 -9 -8 7 -6 8 113 43 61 18 153 55 205 81 100 52 115 57
105 41z m-1708 -47 c-3 -10 -5 -4 -5 12 0 17 2 24 5 18 2 -7 2 -21 0 -30z
m1176 -141 c-9 -5 -9 -19 -3 -47 12 -51 12 -65 1 -65 -5 0 -11 14 -14 30 -5
24 -12 30 -32 30 -16 0 -25 -6 -25 -15 0 -19 -11 -19 -36 0 -18 13 -18 14 -1
15 30 0 16 35 -16 38 -23 3 -27 0 -27 -23 0 -17 -7 -28 -20 -33 -19 -7 -18 -9
12 -27 19 -11 27 -20 19 -23 -13 -4 -91 65 -91 82 0 5 9 1 19 -8 22 -20 41
-14 41 12 0 14 -8 16 -50 14 l-50 -4 0 -49 c0 -27 -4 -49 -10 -49 -5 0 -10 9
-10 21 0 16 -4 19 -21 14 -29 -9 -57 19 -51 50 2 15 0 25 -7 25 -6 0 -11 3
-11 8 0 4 62 6 137 4 76 -2 163 1 193 6 56 8 74 7 53 -6z"/>
<path d="M1097 478 c-4 -13 0 -18 14 -18 10 0 22 0 27 -1 4 0 8 6 10 14 5 23
-45 28 -51 5z"/>
<path d="M2167 628 c-26 -20 -7 -44 22 -28 22 11 24 31 5 37 -5 2 -17 -2 -27
-9z"/>
<path d="M1855 450 c3 -5 16 -10 28 -10 18 0 19 2 7 10 -20 13 -43 13 -35 0z"/>
<path d="M1622 462 c-31 -5 -23 -26 11 -30 19 -2 27 1 27 12 0 19 -9 23 -38
18z"/>
<path d="M1338 435 c-6 -30 -2 -35 29 -35 19 0 23 5 23 30 0 25 -4 30 -24 30
-17 0 -25 -7 -28 -25z"/>
<path d="M584 449 c1 -33 -4 -45 -24 -60 -22 -17 -47 -19 -210 -21 -176 -3
-187 -4 -218 -27 -18 -13 -32 -24 -30 -26 2 -1 30 1 63 5 97 12 126 -13 141
-122 3 -27 7 -48 9 -48 1 0 21 18 43 40 45 45 32 43 269 44 138 1 154 3 180
22 21 16 29 31 31 61 5 62 -10 87 -60 103 -23 7 -76 26 -116 42 -40 15 -74 28
-76 28 -1 0 -2 -19 -2 -41z"/>
<path d="M2320 470 c-25 -10 -74 -29 -110 -43 -43 -16 -69 -33 -77 -48 -20
-38 -16 -85 11 -116 l24 -28 179 -1 c98 0 189 -4 203 -8 14 -5 42 -24 63 -44
32 -31 37 -33 38 -17 8 134 46 177 142 158 54 -11 60 2 11 27 -22 11 -71 15
-204 16 -189 1 -226 9 -236 51 -4 13 -3 34 0 48 4 14 5 25 4 24 -2 0 -23 -9
-48 -19z"/>
</g>
</svg>
