<?xml version="1.0" standalone="no"?>
<!DOCTYPE svg PUBLIC "-//W3C//DTD SVG 20010904//EN"
 "http://www.w3.org/TR/2001/REC-SVG-20010904/DTD/svg10.dtd">
<svg version="1.0" xmlns="http://www.w3.org/2000/svg"
 width="300.000000pt" height="346.000000pt" viewBox="0 0 300.000000 346.000000"
 preserveAspectRatio="xMidYMid meet">
<metadata>
Created by potrace 1.10, written by Peter Selinger 2001-2011
</metadata>
<g transform="translate(0.000000,346.000000) scale(0.100000,-0.100000)"
fill="#000000" stroke="none">
<path d="M1363 3338 c-12 -15 -25 -77 -28 -131 -3 -48 -9 -54 -66 -62 l-46 -7
-27 74 c-35 95 -45 103 -102 89 -24 -6 -69 -21 -99 -32 -63 -23 -66 -33 -40
-129 8 -30 15 -60 15 -67 0 -15 -87 -65 -107 -61 -9 2 -21 12 -27 23 -14 26
-88 95 -102 95 -24 0 -164 -104 -164 -122 0 -5 15 -33 33 -61 62 -96 61 -92
26 -132 -17 -19 -39 -35 -49 -35 -9 0 -50 16 -89 36 -40 20 -78 33 -86 31 -22
-9 -115 -126 -115 -146 0 -9 29 -47 65 -82 l65 -66 -28 -51 c-31 -59 -45 -63
-139 -38 -75 20 -87 14 -108 -52 -42 -134 -41 -156 8 -167 18 -3 52 -16 77
-28 l45 -23 -1 -53 c-1 -29 -6 -56 -10 -61 -5 -4 -49 -10 -99 -13 -50 -3 -91
-6 -92 -6 -2 -1 -3 -50 -3 -110 0 -125 -8 -115 107 -130 84 -10 96 -17 90 -42
-3 -11 -1 -19 5 -19 5 0 8 -14 6 -32 -3 -30 -8 -34 -76 -59 -102 -38 -104 -43
-71 -142 15 -45 35 -87 44 -93 18 -13 66 -10 127 8 45 13 53 8 88 -56 l25 -46
-63 -57 c-55 -49 -63 -59 -57 -82 4 -14 10 -28 13 -31 4 -3 27 -31 50 -63 49
-66 52 -66 140 -11 29 19 61 34 71 34 9 0 32 -18 49 -39 l32 -39 -36 -59 c-41
-68 -51 -100 -37 -121 13 -22 132 -102 151 -102 8 0 42 27 75 60 61 60 78 69
100 49 7 -5 26 -19 44 -29 29 -17 31 -21 23 -57 -4 -21 -10 -59 -14 -85 -6
-48 -5 -48 32 -64 72 -30 153 -53 167 -48 8 3 17 16 21 27 3 12 14 40 24 62
10 22 20 48 24 59 5 15 13 17 37 12 18 -3 42 -6 55 -6 21 0 24 -5 24 -34 0
-18 3 -61 6 -94 7 -59 8 -62 41 -73 20 -6 66 -9 106 -6 83 5 93 14 102 96 10
97 15 105 65 112 54 8 67 -4 95 -87 24 -71 33 -78 87 -64 52 13 140 51 150 65
13 17 9 74 -7 112 -22 53 -20 58 37 88 l51 27 57 -61 c31 -34 61 -61 66 -61 6
0 46 21 90 48 71 43 79 50 77 76 -1 16 -9 36 -17 45 -8 9 -25 37 -39 63 l-25
47 39 41 c42 44 54 47 78 26 14 -13 128 -76 136 -76 9 0 115 149 115 162 0 7
-27 42 -60 78 -33 36 -60 69 -60 75 0 16 38 93 50 100 5 3 45 -2 89 -11 43 -9
85 -15 93 -12 7 3 27 46 42 96 23 70 27 94 18 105 -7 7 -43 26 -82 41 l-70 28
0 46 c0 26 4 52 8 58 4 6 45 14 92 18 47 4 90 12 96 17 14 11 18 187 6 206
-10 16 -99 35 -131 28 -36 -8 -59 12 -69 62 -8 34 -7 45 7 57 16 14 60 34 91
41 35 8 70 25 70 36 0 6 -14 53 -32 105 l-32 94 -50 0 c-28 0 -69 -7 -91 -15
-39 -14 -41 -13 -62 13 -13 15 -28 39 -34 55 -11 26 -9 30 51 84 56 51 61 59
56 87 -4 16 -10 32 -14 36 -4 3 -25 29 -46 58 -45 62 -51 62 -143 7 -32 -19
-63 -35 -69 -35 -5 0 -24 15 -42 33 -32 33 -42 70 -22 82 6 4 24 33 41 67 25
50 28 62 17 76 -23 28 -130 102 -148 102 -9 0 -45 -27 -78 -60 -34 -33 -66
-60 -72 -60 -5 0 -33 12 -60 28 -45 24 -50 30 -44 52 19 71 32 144 28 155 -8
19 -184 70 -202 59 -8 -6 -27 -41 -42 -79 l-26 -70 -59 3 c-33 1 -63 8 -67 15
-4 6 -8 41 -8 77 0 114 4 110 -115 110 -70 0 -106 -4 -112 -12z m188 -45 c4
-10 8 -52 8 -94 l1 -77 73 -7 c39 -3 79 -8 88 -11 11 -3 24 16 48 71 19 41 37
78 42 80 9 6 129 -24 142 -36 5 -4 0 -44 -12 -90 -26 -101 -26 -96 0 -104 11
-4 47 -22 80 -41 l60 -34 55 60 c31 32 64 62 75 65 19 6 58 -15 106 -58 l22
-20 -26 -51 c-14 -28 -34 -61 -45 -73 -27 -29 -19 -48 47 -113 47 -47 58 -53
73 -43 43 29 134 83 141 83 5 0 27 -27 50 -59 l41 -59 -70 -64 -69 -63 43 -73
c23 -39 45 -74 48 -77 2 -3 22 1 44 8 21 8 60 17 87 21 48 7 53 4 61 -36 2 -7
6 -20 9 -28 33 -88 35 -84 -70 -125 -82 -32 -83 -33 -60 -145 11 -51 14 -55
42 -58 17 -1 58 -5 93 -8 l63 -6 -3 -81 -3 -82 -92 -3 c-70 -2 -92 -6 -97 -18
-3 -8 -9 -50 -12 -94 -6 -68 -5 -80 8 -80 20 0 119 -40 135 -54 10 -9 8 -27
-9 -83 -24 -82 -16 -79 -141 -46 -34 9 -61 12 -66 7 -5 -5 -25 -42 -46 -82
l-38 -72 67 -65 c36 -35 66 -68 66 -73 0 -7 -36 -59 -76 -111 -8 -9 -99 34
-130 61 l-34 30 -65 -57 c-36 -32 -65 -64 -65 -72 0 -8 8 -27 18 -41 10 -15
31 -48 45 -74 l27 -47 -62 -42 -62 -42 -61 67 -62 68 -80 -46 -79 -47 17 -67
c29 -109 29 -108 -50 -132 -37 -11 -71 -20 -74 -20 -8 0 -54 97 -62 133 -4 15
-11 29 -15 32 -4 2 -42 -2 -85 -10 -42 -8 -78 -15 -79 -15 -2 0 -6 -37 -10
-82 -4 -46 -10 -86 -15 -91 -4 -4 -43 -7 -87 -5 l-79 3 -5 90 -5 90 -83 10
-84 11 -12 -25 c-7 -15 -23 -52 -36 -84 -12 -31 -27 -57 -32 -57 -5 0 -41 9
-79 21 -55 17 -69 25 -65 38 12 39 38 163 34 165 -1 2 -37 22 -79 45 l-77 41
-63 -65 c-34 -36 -69 -65 -77 -65 -21 0 -112 69 -112 85 0 19 47 105 72 132
l20 22 -58 65 c-33 36 -63 66 -67 66 -5 0 -42 -20 -83 -45 -74 -45 -94 -53
-94 -36 0 5 -16 30 -35 55 -19 26 -35 52 -34 59 0 6 29 36 65 66 l64 53 -36
67 c-53 96 -54 97 -106 78 -24 -9 -61 -17 -83 -19 l-40 -3 -25 73 c-24 72 -25
74 -6 87 10 8 47 24 82 35 35 12 66 25 69 30 3 4 0 34 -5 66 -20 111 -14 104
-73 105 -28 0 -70 3 -92 7 l-40 7 4 80 c1 44 4 81 5 83 2 1 43 3 92 5 l89 2
10 77 c6 42 8 85 4 95 -4 12 -35 30 -78 47 -39 15 -73 32 -76 37 -7 10 34 149
43 149 4 0 45 -9 91 -20 96 -23 86 -29 139 74 l33 64 -65 67 c-36 36 -66 71
-66 76 0 5 19 33 42 63 l42 54 50 -25 c28 -14 65 -36 81 -49 l30 -22 67 61 68
62 -51 80 -51 79 31 27 c18 15 47 35 65 44 l33 18 39 -44 c22 -24 49 -54 61
-66 l22 -23 73 40 c40 21 74 46 76 54 2 8 -4 38 -12 67 -9 29 -16 65 -16 80 0
25 6 29 67 48 36 12 71 21 77 21 6 0 26 -38 44 -85 34 -85 34 -86 65 -80 18 3
54 9 82 13 56 8 62 19 64 107 2 91 2 91 89 88 63 -2 78 -5 83 -20z"/>
<path d="M1267 3085 c-225 -43 -433 -153 -597 -317 -217 -217 -324 -464 -337
-778 -14 -327 100 -621 332 -856 190 -193 418 -301 705 -334 120 -14 256 -3
406 35 104 26 279 111 369 178 80 59 207 187 260 261 84 119 162 300 197 461
16 77 16 351 -1 430 -52 248 -167 453 -352 631 -127 122 -308 223 -488 270
-123 33 -370 42 -494 19z m341 -25 c674 -85 1122 -762 937 -1417 -31 -110
-119 -288 -184 -374 -172 -226 -434 -384 -713 -429 -121 -20 -350 -8 -464 24
-509 141 -848 613 -821 1144 33 646 608 1132 1245 1052z"/>
<path d="M1362 3038 c-7 -7 -12 -17 -12 -24 0 -19 -119 -32 -172 -19 -46 12
-75 -1 -80 -35 -3 -17 0 -31 8 -34 6 -2 17 -21 24 -40 6 -20 16 -36 21 -36 13
0 11 12 -6 53 -15 38 -12 47 18 47 14 0 17 -5 13 -17 -6 -15 8 -32 27 -33 4 0
5 16 1 35 -8 42 12 49 22 8 12 -54 15 -63 26 -63 6 0 8 14 3 38 -4 20 -7 41
-8 46 -3 13 66 27 78 15 5 -5 1 -9 -13 -9 -13 0 -25 -7 -28 -15 -8 -19 15 -48
33 -41 7 3 13 1 13 -4 0 -6 6 -10 14 -10 9 0 12 7 9 20 -7 25 4 53 17 45 7 -4
7 -12 0 -25 -6 -12 -7 -21 -1 -25 6 -3 15 4 21 15 12 23 -3 53 -24 48 -6 -2
-14 2 -16 7 -3 6 12 11 32 13 l37 3 3 -48 c2 -28 7 -46 13 -43 6 3 8 22 7 44
-3 25 1 42 10 47 9 6 10 9 1 9 -7 0 -22 9 -33 20 -23 23 -41 25 -58 8z m-187
-54 c14 -6 10 -10 -15 -21 -36 -15 -46 -12 -37 12 7 16 25 19 52 9z"/>
<path d="M1540 3000 c0 -5 11 -10 25 -10 16 0 25 -6 25 -15 0 -18 -17 -20 -23
-2 -2 6 -8 9 -12 5 -9 -9 26 -70 44 -76 10 -3 11 0 1 18 -13 25 -8 35 15 27 8
-4 15 -18 15 -32 0 -42 17 -28 25 21 6 45 7 45 38 38 40 -8 41 -9 33 -31 -6
-15 -9 -15 -16 -3 -17 27 -21 2 -6 -35 9 -22 20 -34 27 -30 8 5 8 10 0 18 -17
17 -13 27 9 27 11 0 20 -4 20 -9 0 -18 31 -41 55 -41 18 0 22 -4 18 -20 -9
-36 11 -21 29 20 9 23 23 40 32 40 20 0 20 -3 -4 -50 -23 -45 -24 -50 -10 -50
5 0 19 18 30 40 11 22 22 40 25 40 2 0 20 -9 39 -21 43 -25 38 -46 -5 -24 -28
15 -29 15 -29 -6 0 -15 4 -19 16 -15 27 10 36 -4 20 -29 -9 -14 -12 -26 -6
-30 5 -3 20 10 32 29 13 20 30 36 38 36 23 1 -26 36 -106 75 -74 37 -105 45
-86 22 6 -7 8 -18 4 -23 -10 -16 -49 -27 -56 -16 -3 6 3 12 14 15 27 7 26 44
-1 52 -12 4 -26 2 -31 -3 -11 -11 -3 -32 13 -32 6 0 7 5 4 10 -3 6 -1 10 4 10
13 0 14 -17 2 -25 -11 -6 -61 15 -61 26 0 4 8 12 17 18 14 7 10 11 -22 20 -41
10 -160 31 -182 31 -7 0 -13 -4 -13 -10z"/>
<path d="M1006 2951 c-3 -5 6 -12 21 -16 26 -6 24 -8 -35 -40 -35 -18 -69 -38
-76 -44 -10 -8 -22 -8 -40 -1 -33 12 -36 12 -36 1 0 -5 8 -12 18 -14 10 -3 6
-5 -10 -6 -16 0 -28 -6 -28 -12 0 -6 9 -8 21 -4 16 5 29 -3 60 -36 46 -50 64
-45 24 7 -27 36 -28 37 -9 51 35 26 54 34 54 23 0 -5 5 -10 10 -10 6 0 10 9
10 20 0 28 15 25 29 -6 13 -29 1 -54 -26 -54 -13 0 -13 2 -2 16 12 15 11 16
-10 9 -16 -5 -21 -4 -17 4 4 6 3 11 -3 11 -20 0 -23 -22 -5 -41 20 -23 47 -25
64 -5 6 8 18 12 26 9 19 -7 18 9 -3 46 -14 24 -15 33 -6 42 10 10 16 4 30 -29
10 -23 24 -42 31 -42 9 0 8 9 -4 38 -9 20 -17 44 -18 52 -3 17 -63 44 -70 31z"/>
<path d="M1365 2860 c-210 -28 -381 -116 -531 -272 -472 -496 -243 -1308 421
-1490 104 -28 315 -31 418 -5 260 65 477 236 593 467 70 141 94 242 94 406 0
256 -79 452 -255 630 -148 150 -302 229 -505 260 -103 15 -142 16 -235 4z
m330 -55 c253 -70 472 -265 570 -508 51 -127 69 -229 62 -366 -6 -135 -30
-229 -87 -346 -255 -524 -955 -643 -1365 -231 -155 155 -239 345 -252 571 -13
238 68 462 231 632 135 142 293 231 471 263 74 13 300 4 370 -15z"/>
<path d="M1118 2571 c-66 -33 -94 -59 -118 -108 -13 -26 -30 -61 -39 -78 l-15
-30 31 25 c18 14 52 38 77 53 32 20 57 47 81 88 19 33 35 62 35 65 0 8 -14 3
-52 -15z"/>
<path d="M1811 2520 c37 -56 99 -110 125 -110 14 0 64 -57 64 -72 0 -6 -9 -3
-19 6 -20 18 -101 46 -134 46 -32 0 70 -86 140 -117 51 -22 65 -33 79 -66 22
-47 31 -34 11 15 -12 28 -12 39 0 73 8 24 11 56 8 80 -8 48 -52 145 -67 145
-14 0 -5 -167 10 -182 17 -17 15 -38 -4 -38 -10 0 -13 6 -10 18 4 11 -3 33
-17 53 -12 19 -29 49 -37 68 -21 53 -60 92 -115 117 -27 13 -55 24 -62 24 -7
0 6 -27 28 -60z"/>
<path d="M906 2497 c-41 -62 -55 -147 -35 -205 9 -25 7 -41 -7 -77 -23 -63
-13 -66 16 -5 13 28 30 50 38 50 36 0 202 107 202 131 0 9 -110 -19 -135 -35
-11 -7 -30 -15 -43 -19 -19 -4 -22 -2 -17 11 4 9 10 52 13 95 5 81 -4 97 -32
54z"/>
<path d="M1495 2505 c21 -52 17 -81 -14 -117 -32 -36 -48 -85 -38 -113 10 -25
34 -7 29 23 -2 18 5 39 22 62 51 70 55 110 13 147 -20 18 -20 17 -12 -2z"/>
<path d="M1460 2455 c-12 -15 -5 -73 8 -61 6 6 12 76 7 76 -2 0 -8 -7 -15 -15z"/>
<path d="M1370 2361 c0 -6 5 -13 10 -16 6 -3 10 -21 10 -38 0 -42 15 -66 30
-51 9 9 9 14 1 18 -6 4 -11 20 -11 36 0 16 -7 36 -16 44 -18 18 -24 20 -24 7z"/>
<path d="M1507 2363 c-3 -5 -3 -28 0 -51 4 -33 10 -42 22 -40 11 3 16 14 14
37 -1 34 -26 70 -36 54z"/>
<path d="M780 2324 c-18 -55 -9 -154 18 -192 19 -26 22 -42 20 -89 l-3 -58
-12 39 c-13 41 -72 136 -85 136 -5 0 -8 -21 -8 -47 0 -58 28 -123 75 -175 19
-21 35 -46 35 -57 0 -10 3 -34 6 -52 6 -34 6 -34 -24 13 -29 44 -106 107 -117
96 -8 -7 15 -68 40 -108 25 -39 85 -96 119 -111 11 -6 39 -38 61 -72 53 -82
55 -89 9 -46 -22 20 -52 45 -69 56 -34 22 -116 55 -123 49 -8 -8 50 -76 91
-106 22 -16 69 -39 105 -51 64 -21 152 -74 152 -91 0 -5 -9 -4 -19 2 -33 17
-152 41 -172 35 -17 -6 -18 -9 -8 -22 17 -20 74 -48 138 -67 41 -12 63 -14 91
-6 32 9 46 6 94 -15 31 -14 56 -26 56 -28 0 -2 -23 -2 -51 1 -49 5 -169 -22
-169 -38 0 -4 36 -15 80 -24 84 -19 146 -13 208 17 26 13 112 12 112 -2 -1 -3
-22 -16 -48 -29 -26 -12 -58 -32 -72 -43 -24 -20 -24 -21 -6 -35 17 -12 23
-10 52 16 18 16 54 41 79 55 l45 27 42 -25 c24 -14 54 -37 67 -51 25 -27 55
-34 67 -15 8 14 -51 64 -93 81 -43 16 -42 25 5 30 24 3 53 -2 82 -16 31 -14
65 -20 110 -20 68 0 150 19 150 34 0 19 -102 43 -163 37 -67 -6 -65 1 8 28 31
12 71 17 110 16 66 -2 123 15 188 57 23 15 34 29 29 34 -12 12 -126 -8 -165
-29 -16 -8 -36 -12 -44 -9 -8 3 -26 -3 -40 -14 -45 -35 -49 -21 -6 23 51 51
63 82 63 155 l-1 57 -25 -30 c-38 -44 -77 -132 -82 -186 l-4 -46 -75 -33 c-82
-36 -106 -35 -45 4 22 13 49 36 60 51 23 28 57 123 49 132 -3 3 -26 -10 -52
-28 -45 -33 -100 -106 -124 -165 -10 -26 -19 -32 -67 -42 -36 -7 -63 -8 -80
-2 -14 6 -36 10 -49 10 -19 0 -29 12 -53 63 -30 64 -78 119 -131 150 -38 22
-40 10 -12 -55 24 -56 63 -102 101 -118 28 -12 41 -30 21 -30 -27 0 -213 98
-257 136 l-52 44 5 64 c6 64 -20 196 -37 196 -15 0 -32 -98 -25 -144 4 -25 5
-46 2 -46 -3 0 -19 26 -36 57 l-31 57 25 38 c37 56 62 205 33 196 -7 -3 -28
-29 -46 -59 -28 -46 -33 -60 -28 -96 3 -24 2 -43 -3 -43 -13 0 -20 24 -27 86
-7 54 -6 56 33 97 47 48 68 87 79 141 l7 39 -32 -24 c-40 -29 -66 -70 -81
-128 -6 -23 -14 -41 -17 -37 -9 9 8 156 18 156 25 0 95 60 130 111 21 32 39
60 39 64 0 14 -100 -48 -128 -79 -49 -56 -62 -49 -55 28 4 50 2 74 -13 110
-11 25 -22 46 -26 46 -3 0 -12 -16 -18 -36z"/>
<path d="M1584 2349 c-4 -7 -7 -25 -6 -40 0 -16 -4 -31 -9 -34 -14 -9 -11 -25
6 -25 9 0 16 14 20 38 3 20 10 45 16 55 7 13 5 17 -5 17 -8 0 -18 -5 -22 -11z"/>
<path d="M2127 2315 c-14 -32 -18 -64 -16 -114 2 -38 0 -73 -4 -77 -4 -4 -7 3
-7 15 0 12 -4 19 -10 16 -5 -3 -23 9 -39 28 -30 33 -106 75 -117 64 -16 -16
91 -136 143 -160 22 -10 27 -23 39 -109 8 -59 -11 -66 -20 -7 -5 31 -19 54
-56 93 -46 48 -50 49 -50 25 0 -38 48 -127 86 -157 38 -30 38 -31 23 -119 -13
-72 -29 -84 -29 -20 0 49 -27 113 -60 142 l-22 20 4 -71 c3 -59 9 -81 35 -123
l32 -50 -36 -66 c-20 -35 -38 -63 -40 -62 -1 2 2 19 7 38 6 18 10 47 10 63 0
35 -20 106 -31 106 -16 0 -42 -142 -35 -198 6 -54 6 -56 -31 -95 -41 -43 -21
-37 40 11 21 17 55 33 76 37 53 9 136 63 177 115 19 24 32 45 30 48 -9 9 -137
-58 -181 -94 -25 -20 -45 -34 -45 -31 0 21 88 126 128 152 26 18 61 50 76 70
32 42 71 135 57 135 -23 0 -99 -70 -124 -115 -24 -42 -27 -45 -23 -20 4 17 9
46 13 65 3 19 23 54 44 78 43 49 69 117 69 176 l-1 41 -35 -40 c-20 -22 -42
-63 -51 -95 -15 -49 -17 -52 -24 -30 -14 48 -9 81 21 133 23 42 30 66 30 109
0 54 -15 118 -28 118 -4 0 -15 -20 -25 -45z"/>
<path d="M1240 2328 c0 -20 32 -48 54 -48 10 0 31 -14 48 -31 22 -21 34 -27
41 -20 16 16 -37 67 -76 75 -17 3 -39 14 -49 23 -15 14 -18 14 -18 1z"/>
<path d="M1726 2321 c-11 -12 -30 -21 -42 -21 -34 0 -89 -52 -80 -76 6 -17 9
-16 29 9 12 15 38 33 58 41 39 16 63 39 57 56 -2 7 -11 3 -22 -9z"/>
<path d="M1419 2217 c-48 -32 -68 -91 -48 -143 l15 -38 103 -1 c119 0 131 7
131 83 0 38 -6 50 -39 83 -33 34 -45 39 -83 39 -30 0 -56 -8 -79 -23z m137
-42 c20 -20 25 -34 22 -63 l-3 -37 -76 -3 c-89 -3 -105 7 -95 63 8 43 39 65
89 65 27 0 45 -7 63 -25z"/>
<path d="M1270 2214 c0 -8 12 -16 28 -20 15 -3 33 -8 40 -10 8 -2 12 3 10 13
-4 22 -78 38 -78 17z"/>
<path d="M1641 2211 c-7 -5 -10 -14 -7 -20 9 -13 55 -4 76 15 12 12 9 14 -20
14 -19 0 -41 -4 -49 -9z"/>
<path d="M1215 2130 c-39 -31 -106 -42 -120 -20 -3 6 -11 10 -18 10 -25 0 31
-41 64 -46 28 -5 41 0 73 25 28 22 49 31 76 31 24 0 40 5 44 15 4 12 -4 15
-38 15 -33 0 -52 -7 -81 -30z"/>
<path d="M1650 2145 c0 -11 11 -15 39 -15 27 0 49 -8 76 -30 21 -16 48 -30 61
-30 34 0 74 21 74 39 0 12 -3 12 -12 3 -23 -23 -83 -14 -123 18 -42 34 -115
43 -115 15z"/>
<path d="M1137 2143 c-15 -14 -6 -19 28 -15 19 2 35 8 35 13 0 10 -53 12 -63
2z"/>
<path d="M1786 2141 c-3 -5 12 -11 34 -13 40 -4 53 5 24 16 -23 9 -52 7 -58
-3z"/>
<path d="M1242 2103 c-24 -9 18 -43 53 -43 37 0 46 6 38 26 -3 9 -13 12 -24 9
-10 -3 -26 -2 -36 3 -10 5 -24 7 -31 5z"/>
<path d="M1711 2099 c-13 -5 -32 -7 -42 -4 -14 5 -19 1 -19 -14 0 -17 6 -21
33 -21 39 0 77 24 62 38 -6 6 -19 6 -34 1z"/>
<path d="M1530 1934 c-128 -147 -172 -214 -141 -214 5 0 19 12 31 27 11 15 30
33 41 41 19 13 19 12 14 -40 -3 -29 -1 -66 4 -83 8 -24 10 -12 9 61 -2 88 -1
93 29 130 53 69 105 152 101 164 -2 7 -42 -32 -88 -86z"/>
<path d="M1374 2009 c-23 -6 -49 -18 -58 -28 -15 -16 -122 -267 -128 -299 -2
-9 34 -25 112 -47 63 -19 122 -34 131 -35 9 0 19 -9 22 -20 3 -14 14 -20 32
-20 18 0 29 6 32 20 3 11 11 20 18 20 15 0 237 68 243 75 8 8 -122 317 -135
322 -18 7 -31 -6 -15 -15 6 -5 23 -47 37 -96 14 -48 32 -103 40 -122 l14 -34
-50 0 c-64 0 -107 -18 -146 -63 -36 -41 -49 -42 -143 -8 -30 11 -79 23 -108
27 -29 3 -54 9 -56 13 -2 3 2 20 10 36 13 28 14 28 9 4 -5 -26 -4 -26 66 -31
59 -5 79 -11 116 -37 25 -18 43 -26 41 -19 -3 7 -23 26 -46 42 -32 23 -56 31
-103 34 -39 3 -59 8 -56 16 2 6 21 61 42 123 l37 111 43 11 c78 20 95 11 105
-51 l7 -43 2 42 c1 45 7 52 55 64 l31 7 -37 1 c-20 1 -40 -4 -43 -9 -4 -7 -14
-5 -28 5 -24 17 -33 17 -93 4z m373 -291 c5 -27 4 -28 -33 -28 -33 0 -112 -23
-189 -55 -18 -7 -17 -5 4 18 36 39 82 57 149 57 l61 0 -20 57 c-10 31 -19 59
-18 62 1 11 40 -84 46 -111z"/>
<path d="M1058 1628 c1 -24 5 -58 8 -76 5 -34 52 -95 87 -114 19 -10 20 -8 13
30 -8 54 -39 125 -73 167 -16 19 -30 35 -33 35 -3 0 -4 -19 -2 -42z"/>
<path d="M813 2777 c-42 -32 -56 -51 -30 -41 8 3 20 -2 27 -11 7 -8 19 -15 26
-15 8 0 11 -6 7 -16 -4 -12 -2 -15 8 -12 7 2 16 15 19 29 4 16 8 20 14 11 4
-7 12 -10 17 -6 5 3 -4 22 -20 41 -17 20 -28 40 -25 45 9 13 1 9 -43 -25z m39
-39 c-17 -17 -47 9 -30 29 10 12 13 12 27 -1 11 -12 12 -19 3 -28z"/>
<path d="M2120 2760 c0 -5 7 -10 15 -10 8 0 15 -4 15 -10 0 -5 -6 -10 -14 -10
-9 0 -12 -7 -9 -21 4 -16 2 -20 -8 -17 -8 3 -14 14 -14 25 0 28 -13 40 -21 19
-3 -9 1 -28 11 -42 13 -21 22 -25 43 -20 24 6 25 5 10 -7 -18 -14 -24 -37 -11
-37 4 0 22 14 40 32 32 31 33 31 47 13 16 -22 11 -39 -10 -31 -10 4 -14 -2
-14 -20 l0 -25 30 21 c24 17 30 18 30 6 0 -8 -13 -24 -30 -36 -29 -21 -39 -40
-21 -40 5 0 24 12 41 27 32 26 33 26 47 7 26 -35 34 -54 23 -54 -22 0 -25 2
-22 16 5 23 -18 16 -27 -8 -22 -59 -23 -68 -7 -68 9 0 16 8 16 18 0 14 8 18
33 19 28 1 36 -5 55 -40 12 -22 19 -43 16 -46 -4 -3 -9 0 -11 6 -3 7 -13 23
-24 35 l-19 23 -20 -24 c-21 -24 -27 -51 -11 -51 5 0 13 9 16 20 3 11 12 20
20 20 15 0 30 -33 17 -38 -5 -1 -18 -9 -28 -17 -30 -21 -10 -28 32 -10 21 8
41 12 45 8 16 -17 48 -112 39 -118 -10 -6 -24 13 -25 38 -1 10 -9 25 -18 34
-15 15 -18 15 -37 -2 -21 -19 -27 -50 -11 -60 5 -3 11 5 13 17 3 26 38 38 38
14 0 -9 -4 -16 -10 -16 -5 0 -10 -4 -10 -10 0 -5 7 -10 15 -10 23 0 18 -18 -7
-22 -12 -2 -23 -9 -26 -17 -3 -10 2 -12 22 -7 14 3 37 9 51 12 21 5 25 3 25
-15 0 -17 -8 -22 -40 -27 -24 -4 -40 -12 -40 -20 0 -16 3 -16 53 -5 30 7 39 6
47 -8 15 -25 12 -2 -10 82 -27 104 -99 250 -168 344 -83 111 -133 162 -116
118 4 -9 -1 -18 -10 -21 -24 -9 -29 1 -15 24 10 17 10 23 0 36 -15 18 -41 22
-41 6z"/>
<path d="M679 2647 c-14 -18 -33 -44 -43 -58 -9 -15 -30 -29 -46 -32 -38 -8
-60 -45 -35 -63 15 -11 15 -14 1 -36 -18 -28 -91 -219 -101 -265 -4 -21 -3
-33 4 -33 6 0 11 9 11 19 0 30 11 51 26 51 17 0 18 -12 2 -28 -6 -6 -9 -14 -6
-18 8 -8 88 34 88 46 0 12 -11 13 -28 1 -19 -12 -70 35 -55 50 8 8 22 8 48 -1
25 -8 40 -9 47 -2 7 7 -3 14 -29 22 -51 17 -53 18 -47 34 3 8 18 13 37 12 24
-1 34 4 42 21 12 28 55 50 55 28 0 -8 5 -15 11 -15 6 0 8 9 4 21 -5 15 -2 22
14 26 12 3 21 10 21 15 0 5 -9 6 -20 3 -14 -5 -20 -2 -20 9 0 9 -4 16 -10 16
-5 0 -10 -11 -10 -24 0 -25 -27 -43 -43 -27 -5 5 -4 17 3 31 8 15 9 25 1 33
-12 12 4 47 22 47 7 0 23 -9 37 -20 30 -23 40 -25 40 -6 0 8 -8 17 -17 21 -10
3 -27 12 -37 20 -19 14 -19 15 -1 35 23 26 39 26 32 0 -4 -16 0 -20 18 -20 12
0 28 7 35 15 7 9 19 14 26 11 29 -11 22 13 -12 39 -21 16 -33 33 -30 41 9 23
-8 14 -35 -19z m47 -56 c-4 -6 -10 -11 -14 -11 -10 0 -31 48 -24 55 10 9 45
-32 38 -44z m-143 -153 c-6 -31 -18 -47 -36 -48 -4 0 0 16 8 36 8 20 15 38 15
40 0 2 4 4 10 4 5 0 7 -14 3 -32z"/>
<path d="M435 2081 c-13 -12 -2 -21 28 -22 l32 0 -33 -17 c-18 -8 -31 -21 -29
-26 5 -15 97 -20 97 -7 0 6 -15 11 -32 11 l-33 1 32 17 c18 9 33 22 35 27 3
10 -88 25 -97 16z"/>
<path d="M2463 2067 c-24 -11 -43 -26 -43 -33 0 -13 97 -40 107 -30 3 3 -2 8
-11 12 -18 7 -22 39 -6 49 12 7 14 25 3 24 -5 0 -27 -10 -50 -22z"/>
<path d="M420 1981 c0 -5 7 -11 15 -15 19 -7 19 -30 0 -46 -8 -7 -13 -16 -10
-20 6 -10 105 30 105 42 0 9 -83 48 -101 48 -5 0 -9 -4 -9 -9z"/>
<path d="M2510 1966 c0 -22 -5 -25 -42 -28 -24 -2 -42 -6 -40 -10 1 -5 4 -8 7
-8 3 0 25 0 50 0 45 0 45 0 45 35 0 19 -4 35 -10 35 -5 0 -10 -11 -10 -24z"/>
<path d="M507 1880 c-4 -15 -14 -20 -41 -20 -20 0 -36 -4 -36 -10 0 -5 18 -10
40 -10 22 0 40 -4 40 -10 0 -5 5 -10 10 -10 6 0 10 18 10 40 0 42 -14 54 -23
20z"/>
<path d="M2461 1886 c-50 -18 -49 -32 5 -55 47 -21 68 -21 46 1 -17 17 -15 48
3 48 8 0 15 5 15 10 0 13 -27 12 -69 -4z"/>
<path d="M2416 1804 c-9 -25 -7 -64 4 -64 6 0 10 6 10 14 0 12 7 13 32 5 43
-12 48 -12 48 5 0 10 -13 16 -37 18 -30 2 -37 7 -35 21 4 21 -14 23 -22 1z"/>
<path d="M463 1803 c-34 -4 -46 -23 -15 -23 37 0 92 13 92 21 0 9 -17 9 -77 2z"/>
<path d="M460 1750 c-38 -38 10 -92 61 -66 27 13 37 50 19 72 -17 20 -57 17
-80 -6z m65 -25 c0 -14 -8 -21 -27 -23 -22 -3 -28 1 -28 16 0 25 10 33 35 30
12 -2 20 -10 20 -23z"/>
<path d="M2395 1698 c-7 -18 -11 -36 -7 -39 15 -13 92 -27 98 -17 3 5 -3 12
-15 15 -28 7 -26 21 4 29 14 3 25 12 25 20 0 17 -5 17 -30 4 -13 -7 -19 -6
-24 5 -9 26 -36 16 -51 -17z"/>
<path d="M506 1660 c-30 -10 -45 -19 -38 -24 6 -4 20 -2 31 4 34 17 36 11 7
-19 -38 -40 -27 -52 29 -34 47 16 64 40 20 29 -30 -8 -32 1 -4 30 28 30 14 35
-45 14z"/>
<path d="M2365 1609 c-6 -9 61 -78 78 -79 11 0 9 14 -4 27 -9 9 -4 18 16 37
l28 26 -56 0 c-31 0 -59 -5 -62 -11z"/>
<path d="M543 1563 c-46 -4 -56 -17 -22 -26 18 -5 20 -10 14 -39 l-7 -33 42
41 c24 23 39 47 36 53 -4 6 -10 10 -14 9 -4 -1 -26 -3 -49 -5z"/>
<path d="M2330 1531 c-15 -28 -12 -46 8 -64 24 -22 55 -21 75 1 23 25 21 49
-3 62 -15 8 -21 6 -30 -11 -11 -19 -10 -20 9 -14 23 7 24 5 15 -19 -8 -20 -38
-21 -54 -1 -10 13 -10 19 4 33 20 23 20 32 1 32 -8 0 -19 -9 -25 -19z"/>
<path d="M583 1483 c-43 -24 -43 -24 -28 -54 9 -16 20 -29 25 -29 13 0 13 7 0
31 -9 16 -6 21 25 36 19 9 35 20 35 24 0 17 -17 15 -57 -8z"/>
<path d="M2283 1435 c-5 -14 47 -94 61 -95 4 0 6 9 3 21 -8 29 2 49 24 49 38
0 18 16 -32 26 -39 8 -52 8 -56 -1z"/>
<path d="M648 1383 c-35 -23 -49 -43 -31 -43 15 0 82 53 77 61 -6 11 -2 13
-46 -18z"/>
<path d="M668 1351 c-21 -14 -37 -29 -38 -33 0 -14 27 -8 40 7 20 24 23 10 6
-24 -10 -18 -12 -32 -6 -36 11 -7 80 42 80 56 0 14 -11 11 -32 -8 -21 -18 -24
-4 -7 29 18 33 -3 37 -43 9z"/>
<path d="M2225 1360 c-3 -5 -1 -19 5 -31 11 -19 10 -20 -9 -14 -27 8 -49 -4
-30 -16 8 -5 24 -9 35 -9 12 0 27 -7 34 -15 10 -12 16 -13 24 -5 8 8 6 14 -6
21 -10 5 -20 25 -24 44 -6 35 -17 44 -29 25z"/>
<path d="M745 1290 c-4 -6 -3 -24 0 -41 6 -24 4 -30 -6 -27 -8 3 -15 10 -15
16 -3 24 -4 26 -15 15 -17 -17 7 -53 36 -53 27 0 36 17 23 43 -5 10 -7 23 -4
30 2 7 8 2 11 -10 9 -27 25 -30 25 -5 0 33 -40 56 -55 32z"/>
<path d="M2140 1264 c-19 -22 -1 -66 32 -78 22 -8 32 -6 48 9 24 22 25 38 4
55 -12 11 -18 10 -32 -4 -16 -16 -16 -17 0 -14 23 4 27 -12 6 -25 -12 -8 -21
-7 -32 2 -23 19 -20 40 9 51 31 12 32 20 1 20 -13 0 -29 -7 -36 -16z"/>
<path d="M810 1242 c0 -4 5 -13 10 -18 7 -7 2 -18 -15 -34 -23 -21 -34 -50
-19 -50 3 0 17 14 31 30 18 22 31 29 44 25 27 -9 24 2 -8 30 -29 25 -43 31
-43 17z"/>
<path d="M2062 1198 c-16 -16 -15 -39 4 -66 19 -27 55 -28 78 -3 16 18 16 21
1 50 -12 23 -22 31 -43 31 -16 0 -33 -5 -40 -12z m63 -38 c0 -32 -30 -39 -45
-10 -14 26 -4 42 23 38 16 -2 22 -10 22 -28z"/>
<path d="M851 1153 c-19 -24 -27 -39 -20 -42 7 -2 24 11 39 29 22 27 28 30 38
17 10 -12 8 -20 -13 -45 -14 -16 -25 -33 -25 -36 0 -9 30 -7 30 2 0 4 8 17 18
30 12 15 24 21 35 16 16 -6 16 -8 2 -30 -22 -34 -19 -59 11 -73 31 -14 39 -9
60 30 12 25 18 28 29 19 12 -10 12 -16 0 -41 -17 -33 -19 -49 -5 -49 5 0 16
16 24 35 11 25 19 33 30 29 9 -3 16 -1 16 4 0 8 -80 52 -95 52 -1 0 -8 -13
-15 -30 -8 -18 -20 -30 -31 -30 -24 0 -24 10 -2 49 17 29 17 31 -2 45 -11 9
-32 21 -47 28 -16 7 -28 16 -28 20 0 18 -21 6 -49 -29z"/>
<path d="M1980 1129 c0 -9 19 -40 46 -77 1 -2 16 4 33 14 33 20 32 41 -1 23
-18 -10 -24 -8 -39 12 -10 13 -19 27 -19 32 0 12 -20 8 -20 -4z"/>
<path d="M1912 1098 c-15 -15 -15 -43 -2 -69 16 -29 67 -26 82 6 22 48 -43
100 -80 63z m58 -28 c13 -25 5 -40 -20 -40 -19 0 -36 32 -25 50 10 17 34 11
45 -10z"/>
<path d="M1856 1071 c-3 -4 1 -17 9 -27 23 -31 17 -37 -14 -15 -26 19 -51 27
-51 17 0 -17 43 -95 51 -91 5 4 5 13 -1 25 -16 30 -12 32 20 14 16 -10 32 -16
35 -13 5 6 -32 99 -40 99 -2 0 -6 -4 -9 -9z"/>
<path d="M1120 1026 c-25 -66 -24 -72 14 -83 42 -13 60 2 22 17 -34 13 -35 34
-1 26 14 -4 25 -2 25 3 0 5 -9 11 -20 14 -11 3 -20 11 -20 17 0 7 6 10 13 7
45 -19 47 -19 47 -3 0 9 -6 16 -12 16 -7 0 -23 3 -35 6 -18 5 -25 1 -33 -20z"/>
<path d="M1772 1018 c4 -30 -27 -37 -35 -7 -3 12 -10 18 -16 14 -6 -3 -9 -9
-7 -13 2 -4 9 -26 15 -49 13 -48 33 -59 29 -16 -2 19 2 28 15 31 12 2 17 -3
17 -18 0 -12 5 -20 11 -18 14 5 14 5 -1 56 -14 44 -34 58 -28 20z"/>
<path d="M1242 998 c-15 -15 -15 -61 0 -76 7 -7 25 -12 40 -12 35 0 55 41 39
77 -12 26 -58 32 -79 11z m62 -23 c8 -23 -4 -45 -24 -45 -24 0 -33 15 -25 40
7 23 40 27 49 5z"/>
<path d="M1642 998 c-7 -7 -12 -24 -12 -38 0 -14 5 -31 12 -38 17 -17 58 -15
65 3 7 21 -6 33 -17 16 -13 -22 -40 -5 -40 25 0 23 3 25 25 20 18 -5 25 -2 25
9 0 18 -41 20 -58 3z"/>
<path d="M1340 966 c0 -19 -3 -41 -6 -50 -4 -11 -1 -16 10 -16 10 0 16 8 16
21 0 16 4 19 20 14 11 -3 20 -2 20 3 0 5 -9 12 -20 15 -11 3 -20 11 -20 17 0
8 9 10 25 6 27 -7 35 8 9 18 -39 15 -54 7 -54 -28z"/>
<path d="M1513 993 c-35 -2 -63 -8 -63 -13 0 -6 7 -10 15 -10 11 0 15 -11 15
-40 0 -22 5 -40 10 -40 6 0 10 17 10 39 0 30 4 40 20 44 18 5 20 0 20 -39 0
-47 7 -51 58 -38 31 9 28 25 -4 22 -15 -2 -29 3 -31 10 -3 7 5 12 21 12 14 0
26 5 26 11 0 7 -10 9 -25 7 -17 -4 -25 -1 -25 8 0 8 11 14 25 14 14 0 25 5 25
10 0 6 -8 9 -17 8 -10 -1 -46 -3 -80 -5z"/>
<path d="M2200 745 c-80 -41 -149 -75 -153 -75 -5 0 -21 -8 -35 -18 -40 -28
-188 -82 -262 -95 -14 -3 -63 -12 -109 -21 -98 -19 -191 -20 -281 -5 -36 7
-76 13 -90 14 -14 1 -25 3 -25 4 0 2 -7 4 -15 6 -123 27 -256 71 -292 97 -16
11 -28 17 -28 14 0 -3 -28 10 -62 28 -35 19 -94 46 -133 62 -38 15 -80 34 -93
42 -20 13 -27 12 -80 -13 -115 -56 -113 -53 -110 -163 l3 -97 40 -6 c60 -8 86
-28 83 -64 -5 -49 -38 -58 -242 -65 l-178 -6 -39 -41 c-36 -39 -50 -73 -30
-73 5 0 28 7 51 15 65 23 116 20 135 -9 9 -13 17 -36 19 -52 6 -46 17 -108 22
-123 3 -10 20 2 52 36 62 67 95 76 281 72 l146 -3 42 28 c42 28 43 30 43 86 0
31 3 59 6 62 3 3 31 -3 62 -14 61 -21 182 -49 359 -81 117 -21 400 -14 503 13
116 31 204 49 211 44 5 -3 9 -1 9 4 0 5 12 12 28 15 15 3 35 9 45 12 15 6 17
1 17 -45 0 -110 23 -120 265 -120 l186 0 45 -45 c24 -25 51 -45 58 -45 8 0 18
23 26 62 25 121 52 143 137 114 59 -20 63 -20 63 2 0 27 -53 72 -96 83 -22 5
-106 9 -189 8 -178 -2 -205 6 -205 53 0 18 4 38 8 44 8 13 98 54 118 54 11 0
14 23 14 105 l0 104 -76 36 c-42 19 -84 35 -93 34 -9 0 -81 -34 -161 -74z
m240 20 l70 -35 0 -83 0 -82 -58 -22 c-31 -12 -122 -47 -202 -78 -327 -125
-520 -167 -768 -166 -218 1 -415 44 -796 176 -120 41 -221 75 -222 75 -2 0 -4
37 -4 83 l0 82 69 36 69 35 49 -25 c27 -14 92 -45 144 -69 52 -24 118 -54 147
-68 29 -13 101 -39 160 -58 402 -129 662 -86 1192 194 41 22 76 40 78 40 1 0
34 -16 72 -35z m-1677 -340 c64 -20 77 -37 77 -100 0 -78 -53 -96 -255 -89
-151 5 -186 -3 -236 -52 l-36 -35 -7 52 c-9 64 -30 107 -59 118 -12 4 -48 5
-79 2 -32 -4 -58 -4 -58 0 0 4 12 15 27 25 25 17 51 19 212 21 165 1 186 3
210 21 18 13 26 29 28 53 1 19 2 37 2 41 1 3 27 -4 59 -16 31 -12 83 -31 115
-41z m1600 35 c-20 -77 44 -106 214 -96 130 7 228 -4 252 -30 15 -15 12 -15
-34 -9 -89 11 -127 -19 -139 -110 -4 -27 -9 -52 -12 -54 -2 -3 -19 9 -37 27
-44 43 -94 51 -280 49 l-159 -2 -24 28 c-15 17 -24 41 -24 60 0 60 18 76 125
117 118 45 125 46 118 20z"/>
<path d="M690 665 c0 -3 27 -19 61 -36 34 -16 59 -33 56 -35 -3 -3 -28 7 -57
21 -29 14 -54 24 -57 21 -12 -12 8 -54 29 -61 l23 -8 -23 -4 c-13 -3 -31 2
-41 11 -22 20 -31 20 -31 1 0 -8 5 -15 10 -15 6 0 16 -11 22 -25 12 -26 34
-36 24 -10 -3 10 1 15 13 15 10 0 24 7 31 15 10 12 7 17 -14 26 -14 7 -26 18
-26 25 0 10 12 8 45 -8 l45 -22 -25 -32 c-28 -37 -30 -44 -12 -44 6 0 25 20
40 45 25 38 31 43 48 35 24 -13 24 -13 -6 -60 -29 -46 -30 -50 -12 -50 8 0 22
18 32 40 10 23 21 43 25 45 8 5 104 -29 108 -38 7 -21 -2 -23 -42 -9 -48 18
-60 15 -50 -12 7 -17 30 -22 36 -7 2 5 13 5 26 0 19 -7 21 -12 12 -28 -12 -24
-13 -41 -1 -41 5 0 17 20 28 45 15 39 22 45 43 43 28 -3 42 -38 16 -38 -18 0
-22 -25 -5 -36 6 -3 15 -2 20 3 15 15 61 3 55 -13 -3 -8 -9 -21 -12 -29 -4 -9
0 -15 9 -15 10 0 19 17 27 50 8 34 17 50 28 50 31 0 2 11 -79 31 -114 27 -239
73 -326 120 -67 36 -93 46 -93 34z m458 -192 c-2 -10 -7 -17 -11 -15 -4 1 -16
2 -27 2 -13 0 -18 5 -14 15 9 22 56 20 52 -2z"/>
<path d="M2131 629 c-71 -39 -287 -119 -323 -119 -10 0 -18 -5 -18 -10 0 -10
32 -6 78 11 19 7 24 4 33 -18 12 -31 7 -37 -22 -28 -16 6 -18 9 -8 16 7 4 11
10 8 13 -9 9 -49 -24 -49 -40 0 -23 43 -38 70 -24 18 10 24 9 31 -1 4 -7 11
-10 15 -6 4 4 -2 28 -14 53 -21 42 -21 45 -5 50 10 3 42 15 71 26 35 14 57 17
63 11 13 -13 -8 -30 -45 -35 -38 -4 -56 -32 -36 -53 20 -19 80 -32 80 -16 0 6
-11 11 -24 11 -26 0 -51 24 -41 40 8 13 45 13 45 0 0 -19 18 -10 24 13 6 22 6
22 22 2 8 -11 19 -26 23 -34 5 -8 13 -11 19 -7 8 5 1 21 -18 48 -17 23 -30 44
-30 48 0 4 11 12 25 18 26 12 39 3 40 -28 0 -8 11 -17 24 -18 18 -3 22 0 18
12 -4 10 2 20 15 27 19 10 25 8 44 -16 15 -19 24 -23 29 -15 4 7 -8 27 -30 50
-21 21 -34 43 -31 49 12 19 -6 12 -83 -30z m76 -6 c3 -7 -6 -17 -18 -23 -29
-16 -48 8 -22 28 19 14 35 12 40 -5z"/>
<path d="M1630 478 c-30 -5 -117 -8 -193 -6 -75 2 -137 0 -137 -4 0 -5 5 -8
11 -8 7 0 9 -10 5 -24 -8 -33 18 -60 50 -52 19 5 24 2 24 -14 0 -11 5 -20 10
-20 6 0 10 22 10 49 l0 49 50 4 c42 2 50 0 50 -14 0 -26 -19 -32 -42 -11 -20
18 -20 18 -17 -1 5 -24 73 -80 90 -74 8 3 0 12 -19 23 -30 18 -31 20 -12 27
13 5 20 16 20 33 0 20 5 25 24 25 32 0 44 -20 22 -36 -17 -12 -16 -13 3 -23
26 -14 31 -14 31 4 0 9 9 15 24 15 19 0 26 -7 31 -30 7 -32 25 -41 25 -12 0 9
-4 34 -9 54 -6 26 -5 38 3 41 27 10 -4 13 -54 5z m30 -34 c0 -11 -8 -14 -27
-12 -34 4 -42 25 -11 30 29 5 38 1 38 -18z m-270 -14 c0 -25 -4 -30 -25 -30
-21 0 -25 5 -25 30 0 25 4 30 25 30 21 0 25 -5 25 -30z"/>
</g>
</svg>
